# Blender v2.77 (sub 0) OBJ File: 'booth.blend'
# www.blender.org
mtllib booth.mtl
o iMac_Cube.003
v -9.743032 4.552667 -2.523316
v -9.743032 6.552667 -2.523316
v -6.287591 4.552667 -4.538244
v -6.287591 6.552667 -4.538244
v -9.642284 4.552667 -2.350544
v -9.642284 6.552667 -2.350544
v -6.186845 4.552667 -4.365472
v -6.186845 6.552667 -4.365472
vn 0.5037 0.0000 0.8639
vn -0.5037 0.0000 -0.8639
vn 0.8639 0.0000 -0.5037
vn -0.8639 0.0000 0.5037
vn 0.0000 -1.0000 0.0000
vn 0.0000 1.0000 0.0000
usemtl screen
s off
f 8//1 6//1 5//1 7//1
usemtl aluminium
f 2//2 4//2 3//2 1//2
f 4//3 8//3 7//3 3//3
f 6//4 2//4 1//4 5//4
f 1//5 3//5 7//5 5//5
f 6//6 8//6 4//6 2//6
o Shelves.001_Cube.002
v -10.000000 0.080984 5.000000
v -5.000000 0.080984 5.000000
v -10.000000 2.780984 5.000000
v -5.000000 2.780984 5.000000
v -10.000000 0.080984 3.700000
v -5.000000 0.080984 3.700000
v -10.000000 2.780984 3.700000
v -5.000000 2.780984 3.700000
vn -0.0000 0.0000 1.0000
vn -0.0000 1.0000 0.0000
vn 0.0000 0.0000 -1.0000
vn 0.0000 -1.0000 0.0000
vn -1.0000 0.0000 0.0000
vn 1.0000 0.0000 0.0000
usemtl None
s off
f 10//7 12//7 11//7 9//7
f 12//8 16//8 15//8 11//8
f 16//9 14//9 13//9 15//9
f 14//10 10//10 9//10 13//10
f 9//11 11//11 15//11 13//11
f 14//12 16//12 12//12 10//12
o Coffee_Table_Cube.001
v 3.424488 -0.000000 3.828545
v 3.424488 1.500000 3.828545
v 3.424488 -0.000000 -0.171455
v 3.424488 1.500000 -0.171455
v 5.424488 -0.000000 3.828545
v 5.424488 1.500000 3.828545
v 5.424488 -0.000000 -0.171455
v 5.424488 1.500000 -0.171455
vn -1.0000 0.0000 0.0000
vn 0.0000 0.0000 -1.0000
vn 1.0000 0.0000 0.0000
vn 0.0000 0.0000 1.0000
vn 0.0000 -1.0000 0.0000
vn 0.0000 1.0000 0.0000
usemtl None
s off
f 18//13 20//13 19//13 17//13
f 20//14 24//14 23//14 19//14
f 24//15 22//15 21//15 23//15
f 22//16 18//16 17//16 21//16
f 17//17 19//17 23//17 21//17
f 22//18 24//18 20//18 18//18
o Podium_Cylinder
v -7.571627 0.000000 -4.000000
v -7.571627 4.500000 -4.000000
v -7.376537 0.000000 -3.980785
v -7.376537 4.500000 -3.980785
v -7.188944 0.000000 -3.923880
v -7.188944 4.500000 -3.923880
v -7.016057 0.000000 -3.831470
v -7.016057 4.500000 -3.831470
v -6.864521 0.000000 -3.707107
v -6.864521 4.500000 -3.707107
v -6.740158 0.000000 -3.555570
v -6.740158 4.500000 -3.555570
v -6.647748 0.000000 -3.382684
v -6.647748 4.500000 -3.382684
v -6.590842 0.000000 -3.195090
v -6.590842 4.500000 -3.195090
v -6.571627 0.000000 -3.000000
v -6.571627 4.500000 -3.000000
v -6.590842 0.000000 -2.804910
v -6.590842 4.500000 -2.804910
v -6.647748 0.000000 -2.617317
v -6.647748 4.500000 -2.617317
v -6.740158 0.000000 -2.444430
v -6.740158 4.500000 -2.444430
v -6.864521 0.000000 -2.292893
v -6.864521 4.500000 -2.292893
v -7.016057 0.000000 -2.168530
v -7.016057 4.500000 -2.168530
v -7.188944 0.000000 -2.076120
v -7.188944 4.500000 -2.076120
v -7.376537 0.000000 -2.019215
v -7.376537 4.500000 -2.019215
v -7.571628 0.000000 -2.000000
v -7.571628 4.500000 -2.000000
v -7.766718 0.000000 -2.019215
v -7.766718 4.500000 -2.019215
v -7.954311 0.000000 -2.076121
v -7.954311 4.500000 -2.076121
v -8.127198 0.000000 -2.168531
v -8.127198 4.500000 -2.168531
v -8.278734 0.000000 -2.292894
v -8.278734 4.500000 -2.292894
v -8.403097 0.000000 -2.444430
v -8.403097 4.500000 -2.444430
v -8.495507 0.000000 -2.617317
v -8.495507 4.500000 -2.617317
v -8.552413 0.000000 -2.804911
v -8.552413 4.500000 -2.804911
v -8.571627 0.000000 -3.000001
v -8.571627 4.500000 -3.000001
v -8.552412 0.000000 -3.195091
v -8.552412 4.500000 -3.195091
v -8.495506 0.000000 -3.382684
v -8.495506 4.500000 -3.382684
v -8.403096 0.000000 -3.555571
v -8.403096 4.500000 -3.555571
v -8.278733 0.000000 -3.707108
v -8.278733 4.500000 -3.707108
v -8.127196 0.000000 -3.831470
v -8.127196 4.500000 -3.831470
v -7.954309 0.000000 -3.923880
v -7.954309 4.500000 -3.923880
v -7.766716 0.000000 -3.980786
v -7.766716 4.500000 -3.980786
vn 0.0980 0.0000 -0.9952
vn 0.2903 0.0000 -0.9569
vn 0.4714 0.0000 -0.8819
vn 0.6344 0.0000 -0.7730
vn 0.7730 0.0000 -0.6344
vn 0.8819 0.0000 -0.4714
vn 0.9569 0.0000 -0.2903
vn 0.9952 0.0000 -0.0980
vn 0.9952 0.0000 0.0980
vn 0.9569 0.0000 0.2903
vn 0.8819 0.0000 0.4714
vn 0.7730 0.0000 0.6344
vn 0.6344 0.0000 0.7730
vn 0.4714 0.0000 0.8819
vn 0.2903 0.0000 0.9569
vn 0.0980 0.0000 0.9952
vn -0.0980 0.0000 0.9952
vn -0.2903 0.0000 0.9569
vn -0.4714 0.0000 0.8819
vn -0.6344 0.0000 0.7730
vn -0.7730 0.0000 0.6344
vn -0.8819 0.0000 0.4714
vn -0.9569 0.0000 0.2903
vn -0.9952 0.0000 0.0980
vn -0.9952 0.0000 -0.0980
vn -0.9569 0.0000 -0.2903
vn -0.8819 0.0000 -0.4714
vn -0.7730 0.0000 -0.6344
vn -0.6344 0.0000 -0.7730
vn -0.4714 0.0000 -0.8819
vn 0.0000 1.0000 0.0000
vn -0.2903 0.0000 -0.9569
vn -0.0980 0.0000 -0.9952
vn 0.0000 -1.0000 0.0000
usemtl None
s off
f 25//19 26//19 28//19 27//19
f 27//20 28//20 30//20 29//20
f 29//21 30//21 32//21 31//21
f 31//22 32//22 34//22 33//22
f 33//23 34//23 36//23 35//23
f 35//24 36//24 38//24 37//24
f 37//25 38//25 40//25 39//25
f 39//26 40//26 42//26 41//26
f 41//27 42//27 44//27 43//27
f 43//28 44//28 46//28 45//28
f 45//29 46//29 48//29 47//29
f 47//30 48//30 50//30 49//30
f 49//31 50//31 52//31 51//31
f 51//32 52//32 54//32 53//32
f 53//33 54//33 56//33 55//33
f 55//34 56//34 58//34 57//34
f 57//35 58//35 60//35 59//35
f 59//36 60//36 62//36 61//36
f 61//37 62//37 64//37 63//37
f 63//38 64//38 66//38 65//38
f 65//39 66//39 68//39 67//39
f 67//40 68//40 70//40 69//40
f 69//41 70//41 72//41 71//41
f 71//42 72//42 74//42 73//42
f 73//43 74//43 76//43 75//43
f 75//44 76//44 78//44 77//44
f 77//45 78//45 80//45 79//45
f 79//46 80//46 82//46 81//46
f 81//47 82//47 84//47 83//47
f 83//48 84//48 86//48 85//48
f 28//49 26//49 88//49 86//49 84//49 82//49 80//49 78//49 76//49 74//49 72//49 70//49 68//49 66//49 64//49 62//49 60//49 58//49 56//49 54//49 52//49 50//49 48//49 46//49 44//49 42//49 40//49 38//49 36//49 34//49 32//49 30//49
f 85//50 86//50 88//50 87//50
f 87//51 88//51 26//51 25//51
f 25//52 27//52 29//52 31//52 33//52 35//52 37//52 39//52 41//52 43//52 45//52 47//52 49//52 51//52 53//52 55//52 57//52 59//52 61//52 63//52 65//52 67//52 69//52 71//52 73//52 75//52 77//52 79//52 81//52 83//52 85//52 87//52
o Shelves_Cube
v -10.000000 0.080983 -1.300000
v -10.000000 0.080984 3.700000
v -10.000000 2.780983 -1.300000
v -10.000000 2.780984 3.700000
v -8.700001 0.080983 -1.300000
v -8.700001 0.080984 3.700000
v -8.700001 2.780983 -1.300000
v -8.700001 2.780984 3.700000
vn -1.0000 0.0000 0.0000
vn 0.0000 1.0000 -0.0000
vn 1.0000 0.0000 0.0000
vn 0.0000 -1.0000 0.0000
vn 0.0000 0.0000 -1.0000
vn 0.0000 0.0000 1.0000
usemtl None
s off
f 90//53 92//53 91//53 89//53
f 92//54 96//54 95//54 91//54
f 96//55 94//55 93//55 95//55
f 94//56 90//56 89//56 93//56
f 89//57 91//57 95//57 93//57
f 94//58 96//58 92//58 90//58
o Couch_Plane.002
v 7.200000 0.500001 5.000000
v 7.200000 0.500001 -1.000000
v 10.000000 0.500001 -1.000000
v 10.000000 0.500001 5.000000
v 10.000000 3.300001 5.000000
v 9.016750 3.300001 5.000000
v 9.016750 1.872454 5.000000
v 7.200000 1.872454 5.000000
v 7.200000 1.872454 -1.000000
v 9.016750 1.872454 -1.000000
v 9.016750 3.300001 -1.000000
v 10.000000 3.300001 -1.000000
vn 0.0000 -1.0000 0.0000
vn 0.0000 0.0000 1.0000
vn -1.0000 0.0000 0.0000
vn 0.0000 0.0000 -1.0000
vn 1.0000 0.0000 0.0000
vn 0.0000 1.0000 0.0000
usemtl None
s off
f 97//59 98//59 99//59 100//59
f 97//60 100//60 101//60 102//60 103//60 104//60
f 105//61 98//61 97//61 104//61
f 99//62 98//62 105//62 106//62 107//62 108//62
f 100//63 99//63 108//63 101//63
f 102//64 101//64 108//64 107//64
f 105//64 104//64 103//64 106//64
f 102//61 107//61 106//61 103//61
o Wall_Plane.001
v -10.000000 0.000000 -4.750000
v 10.000000 0.000000 -4.750000
v -10.000000 0.000000 -5.250000
v 10.000000 0.000000 -5.250000
v -10.000000 10.000000 -5.250000
v -10.000000 10.000000 -4.750000
v 10.000000 10.000000 -4.750000
v 10.000000 10.000000 -5.250000
v 0.000000 0.000000 -4.750000
v 0.000000 0.000000 -5.250000
v 0.000000 10.000000 -4.750000
v 0.000000 10.000000 -5.250000
vt 0.0000 0.0000
vt 1.0000 0.0000
vt 1.0000 1.0000
vt 0.0000 1.0000
vt 0.0000 0.0000
vt 1.0000 0.0000
vt 1.0000 1.0000
vt 0.0000 1.0000
vt 0.0000 0.0000
vt 1.0000 0.0000
vt 0.0000 1.0000
vt 0.0000 0.0000
vt 1.0000 0.0000
vt 1.0000 1.0000
vt 0.0000 1.0000
vt 0.0000 0.0000
vt 1.0000 0.0000
vt 1.0000 1.0000
vt 1.0000 0.0000
vt 1.0000 1.0000
vt 0.0000 1.0000
vt 0.0000 0.0000
vt 1.0000 0.0000
vt 1.0000 1.0000
vt 0.0000 1.0000
vt 0.0000 0.0000
vt 1.0000 1.0000
vt 0.0000 1.0000
vt 0.0000 0.0000
vt 1.0000 0.0000
vt 1.0000 1.0000
vt 0.0000 1.0000
vn 0.0000 -1.0000 0.0000
vn 0.0000 1.0000 0.0000
vn 1.0000 0.0000 0.0000
vn -1.0000 0.0000 0.0000
vn 0.0000 0.0000 -1.0000
vn 0.0000 0.0000 1.0000
usemtl Material
s off
f 117/1/65 118/2/65 112/3/65 110/4/65
f 119/5/66 115/6/66 116/7/66 120/8/66
f 110/9/67 112/10/67 116/7/67 115/11/67
f 111/12/68 109/13/68 114/14/68 113/15/68
f 118/16/69 111/17/69 113/18/69 120/8/69
f 117/1/70 110/19/70 115/20/70 119/21/70
f 109/22/70 117/23/70 119/24/70 114/25/70
f 112/26/69 118/2/69 120/27/69 116/28/69
f 114/29/66 119/30/66 120/27/66 113/15/66
f 109/22/65 111/17/65 118/31/65 117/32/65
o Floor_Plane
v -10.000000 0.000000 5.000000
v 10.000000 0.000000 5.000000
v -10.000000 0.000000 -5.000000
v 10.000000 0.000000 -5.000000
vn 0.0000 1.0000 0.0000
usemtl Material.001
s off
f 121//71 122//71 124//71 123//71
