# Blender v2.77 (sub 0) OBJ File: 'clouds3.blend'
# www.blender.org
mtllib clouds3.mtl
o Icosphere.003
v 2.310163 2.540289 -2.042418
v 1.643477 1.815536 -1.410458
v 0.504239 2.630890 -2.391272
v 2.402528 1.039361 -1.596480
v 3.802069 1.182172 -2.928075
v 2.778031 1.261849 -3.765718
v 0.135851 1.920073 -1.743161
v 3.282561 2.037043 -2.177051
v 2.981308 2.085674 -3.260405
v -0.139616 2.067447 -3.078771
v 1.456580 0.429826 -2.708226
v 1.672816 1.159747 -3.545059
vn -0.1003 0.7047 0.7024
vn -0.1074 0.6997 0.7063
vn -0.0523 0.5315 -0.8455
vn -0.3122 -0.6957 0.6470
vn 0.3168 -0.9191 0.2344
vn 0.2483 -0.8876 -0.3880
vn -0.7224 -0.6876 0.0731
vn -0.4681 -0.6025 -0.6465
vn -0.0641 -0.7438 -0.6653
vn -0.7664 0.6019 0.2245
vn -0.2033 0.0947 -0.9745
vn -0.2230 -0.4280 0.8759
vn -0.0402 0.7909 -0.6106
vn 0.6187 0.2941 -0.7284
vn 0.7603 0.6232 -0.1834
vn 0.6862 -0.1979 0.7000
vn 0.1049 0.9493 -0.2965
vn 0.4487 0.8897 -0.0848
vn 0.3979 0.1732 0.9009
vn 0.3360 0.4242 0.8409
usemtl Material
s off
f 2//1 1//1 3//1
f 2//2 3//2 7//2
f 9//3 6//3 10//3
f 4//4 7//4 11//4
f 5//5 4//5 11//5
f 6//6 5//6 11//6
f 7//7 10//7 11//7
f 11//8 10//8 12//8
f 12//9 6//9 11//9
f 3//10 10//10 7//10
f 10//11 6//11 12//11
f 2//12 7//12 4//12
f 3//13 9//13 10//13
f 6//14 9//14 5//14
f 9//15 8//15 5//15
f 5//16 8//16 4//16
f 1//17 9//17 3//17
f 1//18 8//18 9//18
f 8//19 2//19 4//19
f 8//20 1//20 2//20
o Icosphere.002
v 1.288882 2.434711 -3.052160
v 3.861606 3.036023 -1.422504
v 5.501880 1.950594 -1.092245
v 3.608123 0.225213 -2.209217
v -2.712724 2.106153 -3.684094
v 4.613587 -0.437661 0.069827
v -2.909227 2.122175 -1.533502
v 1.783037 -0.423169 0.079746
v -0.426024 4.615226 -2.625696
v 1.209171 4.597743 -1.462272
v -4.722230 0.424391 -3.023287
v -0.360439 4.007764 -0.968860
v 4.958110 3.211599 0.582149
v 1.037923 -0.461360 -1.654145
v 3.018364 2.919055 0.152789
v 0.864502 1.067723 0.643861
v 4.175438 0.484823 1.264509
vn 0.3937 0.4648 -0.7931
vn 0.4246 0.3935 -0.8154
vn -0.7221 0.6881 -0.0711
vn 0.4777 0.8195 0.3166
vn 0.5631 0.7376 -0.3726
vn 0.7300 -0.4988 -0.4672
vn 0.0767 -0.4427 -0.8934
vn -0.6097 0.7361 0.2940
vn -0.1479 0.9890 -0.0057
vn 0.1722 -0.9229 -0.3444
vn -0.4125 0.3000 0.8602
vn -0.2492 0.3018 0.9202
vn -0.0050 -0.9997 0.0242
vn -0.5274 -0.1677 0.8329
vn -0.4194 -0.5357 0.7329
vn -0.1736 -0.9801 0.0962
vn -0.0019 -0.7918 0.6107
vn -0.2419 -0.4702 0.8488
vn -0.1078 0.3702 0.9227
vn -0.1599 0.4227 0.8921
vn 0.8960 -0.1260 0.4259
vn 0.8991 -0.1557 0.4092
vn 0.0489 -0.7322 -0.6793
vn -0.0247 0.6792 0.7336
vn -0.2342 0.9097 0.3428
vn -0.6530 0.7546 -0.0653
vn 0.1684 -0.1920 -0.9668
vn 0.4295 0.1089 -0.8965
vn 0.1266 0.2854 -0.9500
vn 0.4199 0.6984 -0.5796
usemtl Material
s off
f 13//21 21//21 14//21
f 13//22 14//22 15//22
f 21//23 17//23 19//23
f 14//24 22//24 27//24
f 15//25 14//25 25//25
f 16//26 15//26 18//26
f 17//27 16//27 23//27
f 21//28 19//28 24//28
f 14//29 27//29 25//29
f 16//30 18//30 26//30
f 24//31 19//31 28//31
f 25//32 27//32 29//32
f 26//33 18//33 20//33
f 19//34 23//34 28//34
f 28//35 23//35 20//35
f 23//36 26//36 20//36
f 20//37 18//37 29//37
f 29//38 28//38 20//38
f 29//39 27//39 28//39
f 27//40 24//40 28//40
f 15//41 29//41 18//41
f 15//42 25//42 29//42
f 23//43 16//43 26//43
f 27//44 22//44 24//44
f 22//45 21//45 24//45
f 19//46 17//46 23//46
f 13//47 16//47 17//47
f 13//48 15//48 16//48
f 17//49 21//49 13//49
f 14//50 21//50 22//50
o Icosphere.001
v -7.411880 -0.299662 -2.086365
v -1.993053 1.564443 -3.752307
v -2.386678 -0.202658 -2.411787
v -6.151487 2.300434 -1.151379
v -1.680457 2.524815 -0.919438
v -9.048025 -0.219236 -2.023532
v -5.156840 -0.435433 0.673891
v -2.586152 2.901734 -2.977621
v -8.840429 0.870613 -1.947838
v -2.000355 1.439675 -2.551106
v -8.228693 -1.345771 -1.632711
v -5.933876 0.260815 -3.559431
vn 0.2050 -0.9725 0.1107
vn -0.0153 0.9980 0.0616
vn 0.9729 -0.2304 -0.0180
vn 0.0814 -0.8110 -0.5793
vn -0.3167 -0.5082 -0.8009
vn 0.1673 -0.6192 -0.7672
vn 0.0631 0.0696 0.9956
vn -0.4557 0.1478 -0.8778
vn -0.1854 0.4297 -0.8837
vn 0.4685 -0.7767 -0.4209
vn -0.5696 -0.1329 0.8111
vn -0.3086 0.5605 -0.7686
vn 0.9227 0.3829 0.0454
vn 0.3051 -0.8195 0.4852
vn -0.2772 -0.0139 0.9607
vn -0.3418 0.8573 -0.3850
vn -0.0597 0.9769 0.2052
vn 0.9006 0.2591 -0.3489
vn -0.0705 0.5357 0.8414
vn -0.5249 0.3321 0.7837
vn -0.7542 0.4546 -0.4739
usemtl Material
s off
f 36//51 40//51 32//51
f 30//52 36//52 32//52
f 31//53 39//53 32//53
f 40//54 41//54 32//54
f 40//55 35//55 41//55
f 41//56 31//56 32//56
f 39//57 30//57 32//57
f 38//58 41//58 35//58
f 41//59 37//59 31//59
f 34//60 36//60 30//60
f 36//61 35//61 40//61
f 38//62 37//62 41//62
f 37//63 39//63 31//63
f 39//64 34//64 30//64
f 33//65 38//65 35//65
f 33//66 37//66 38//66
f 33//67 34//67 37//67
f 34//68 39//68 37//68
f 34//69 33//69 36//69
f 33//70 35//70 36//70
f 32//71 36//71 34//71 39//71
o Icosphere
v 4.576163 -1.602326 1.037364
v 5.665720 -0.452256 4.066481
v 2.507823 -0.619329 -2.991497
v 8.333582 -1.129379 -2.917324
v 0.500942 0.239607 1.727305
v 1.036717 1.129350 -3.121729
v 8.435301 0.901147 1.097324
v 3.690484 2.212644 -0.897368
v 2.754690 -1.369855 2.815436
v 2.059838 -1.537051 -0.068368
v 9.412552 0.080157 1.496791
v 2.901703 -0.375637 4.592733
v 1.199759 -0.468987 -2.285527
v 0.819344 -0.587230 0.582886
v 5.828195 0.961947 -3.649352
v 8.449247 1.506198 -1.493500
v 7.092037 1.685297 0.193300
v 3.750928 1.617753 3.784447
v 1.991697 1.675244 -0.628681
vn 0.3474 -0.9113 0.2211
vn -0.0573 -0.9958 0.0715
vn 0.2668 -0.9441 0.1935
vn -0.5379 -0.8241 0.1774
vn -0.0187 -0.3502 -0.9365
vn -0.3792 0.4629 -0.8012
vn -0.0150 0.9059 -0.4233
vn 0.3823 0.8994 0.2121
vn 0.1486 0.9888 0.0146
vn 0.0945 0.9319 -0.3501
vn -0.3130 0.9458 -0.0872
vn -0.2813 0.9515 0.1245
vn -0.4898 0.8471 0.2063
vn 0.1131 0.9858 0.1238
vn 0.3150 0.8970 0.3100
vn 0.9991 -0.0415 -0.0043
vn 0.5384 0.3821 -0.7511
vn -0.1128 -0.4696 -0.8756
vn -0.8227 0.5326 0.1985
vn -0.8797 0.2342 -0.4139
vn -0.6042 0.5067 0.6150
vn 0.4798 0.5382 0.6929
vn 0.3323 0.7020 0.6299
vn -0.9758 -0.1709 -0.1365
vn -0.6416 -0.7582 -0.1163
vn -0.6023 -0.7172 0.3506
vn -0.6965 -0.6002 0.3934
vn 0.1864 0.2999 0.9356
vn 0.6824 0.6452 -0.3436
vn -0.0831 -0.9771 -0.1958
vn 0.1001 -0.9536 -0.2840
vn -0.2799 -0.9029 -0.3264
vn 0.0677 -0.8731 0.4828
vn 0.1691 -0.9401 0.2961
usemtl Material
s off
f 43//72 42//72 45//72
f 42//73 50//73 51//73
f 43//74 45//74 52//74
f 51//75 50//75 55//75
f 45//76 44//76 56//76
f 44//77 54//77 56//77
f 56//78 47//78 49//78
f 48//79 57//79 58//79
f 58//80 57//80 49//80
f 57//81 56//81 49//81
f 49//82 47//82 60//82
f 60//83 59//83 49//83
f 60//84 46//84 59//84
f 59//85 58//85 49//85
f 59//86 48//86 58//86
f 45//87 57//87 48//87
f 45//88 56//88 57//88
f 56//89 54//89 47//89
f 55//90 60//90 47//90
f 55//91 46//91 60//91
f 53//92 59//92 46//92
f 43//93 48//93 59//93
f 43//94 52//94 48//94
f 54//95 55//95 47//95
f 54//96 51//96 55//96
f 55//97 53//97 46//97
f 55//98 50//98 53//98
f 53//99 43//99 59//99
f 52//100 45//100 48//100
f 42//101 44//101 45//101
f 42//102 51//102 44//102
f 51//103 54//103 44//103
f 50//104 43//104 53//104
f 50//105 42//105 43//105
