# Blender v2.77 (sub 0) OBJ File: 'clouds.blend'
# www.blender.org
mtllib clouds.mtl
o Icosphere.002_Icosphere.007
v -2.089884 -0.007989 0.423212
v -2.514478 0.114769 -0.598636
v -1.866039 0.114770 -0.293864
v -2.710116 0.607989 -0.423212
v -1.816178 0.439639 0.098950
v -2.586371 0.889832 -0.000000
v -2.400000 -0.360709 0.000000
v -2.921118 -0.074173 0.000000
v -2.116015 0.614723 0.475482
v -2.595594 0.334038 0.601974
v -3.008949 0.459723 0.073875
v -2.107529 0.773232 -0.303808
v -1.068376 -0.994276 -0.168282
v -1.535240 -0.700736 -0.724008
v -1.296382 0.523793 0.892291
v -2.147501 0.523790 0.279175
v -1.884116 0.361004 -0.796989
v -1.211530 0.994276 0.272289
v -1.170550 -0.957650 0.398401
v -1.303618 -0.523792 0.892290
v -0.452499 -0.523790 0.279176
v -2.149739 -0.523791 0.272290
v -2.004982 -0.731402 -0.246228
v -0.772592 -0.523792 -0.719748
v -0.307105 0.237481 -0.168281
v -0.455475 -0.053589 0.613582
v -1.622581 -0.053590 0.992798
v -2.343889 -0.053590 0.000000
v -0.977419 0.053590 -0.992798
v -0.595016 0.731401 0.246227
v -1.718908 0.957649 -0.000000
v -0.880999 0.677965 -0.686665
v 0.221871 -0.702181 0.000000
v -0.681878 -0.368048 0.017616
v -0.183919 -0.469946 -0.566048
v 0.635668 -0.220512 -0.349838
v -0.408882 0.252703 -0.557892
v 0.061929 0.695993 -0.190602
v 0.631530 -0.166239 0.313221
v -0.059204 -0.374670 0.656661
v -0.591167 0.037512 0.429508
v 0.102740 0.166239 -0.697410
v 0.193959 0.368049 0.653948
v 0.595177 0.469946 -0.000000
v -0.494273 0.563371 0.087947
vn 0.6901 -0.7178 0.0925
vn 0.8946 -0.3935 0.2119
vn 0.7775 -0.0201 0.6285
vn -0.5361 0.6243 0.5682
vn -0.7135 0.6612 -0.2317
vn -0.1272 0.8423 -0.5238
vn -0.2451 0.7142 0.6556
vn 0.3448 0.9191 0.1907
vn 0.6398 0.7518 0.1599
vn 0.8736 0.3148 -0.3712
vn 0.0842 0.3634 -0.9278
vn 0.4211 0.1409 -0.8960
vn -0.8303 -0.1373 -0.5401
vn -0.8177 -0.0553 -0.5729
vn -0.7936 -0.2096 0.5713
vn 0.2914 -0.0679 0.9542
vn 0.2953 -0.7198 -0.6282
vn -0.4125 -0.7501 -0.5169
vn -0.3663 -0.6661 0.6497
vn -0.2041 -0.6732 0.7107
vn -0.2712 -0.9624 0.0133
vn -0.2359 -0.9270 -0.2915
vn -0.6779 -0.2698 -0.6838
vn -0.2571 -0.1501 -0.9547
vn 0.7780 -0.0209 -0.6279
vn 0.3356 0.7277 0.5982
vn -0.3933 0.7398 0.5459
vn -0.7666 0.5801 -0.2754
vn 0.7242 0.6392 -0.2586
vn 0.3806 0.9092 -0.1687
vn 0.0844 0.9546 -0.2858
vn -0.1923 0.8043 -0.5623
vn -0.3439 0.7701 0.5373
vn 0.7374 0.2022 -0.6445
vn -0.0423 0.4451 -0.8945
vn -0.8617 0.4262 -0.2754
vn -0.5287 0.4264 0.7339
vn 0.5376 0.4339 0.7230
vn 0.9128 0.2946 0.2829
vn 0.0972 -0.3971 -0.9126
vn -0.8019 -0.1959 -0.5645
vn -0.9031 -0.4212 -0.0835
vn -0.8090 -0.0090 0.5878
vn -0.8090 0.0063 0.5878
vn -0.5128 -0.4974 0.6998
vn 0.3090 -0.0090 0.9510
vn 0.3090 0.0063 0.9510
vn 0.5071 -0.4974 0.7039
vn 0.9837 -0.1000 0.1494
vn 0.8957 -0.3398 -0.2870
vn 0.1876 -0.7947 -0.5773
vn -0.4189 -0.8773 0.2343
vn -0.3977 -0.7398 0.5427
vn 0.6882 -0.6912 -0.2205
vn 0.5294 -0.8351 0.1494
vn 0.4689 -0.5971 0.6509
vn 0.7771 -0.6268 0.0562
vn -0.3247 -0.8945 0.3072
vn -0.3460 -0.9288 -0.1330
vn -0.2741 -0.0745 -0.9588
vn -0.0814 0.6857 -0.7233
vn 0.4839 0.6242 -0.6135
vn -0.4104 0.7994 -0.4388
vn -0.0379 0.9295 0.3669
vn 0.2748 0.9100 0.3104
vn 0.6794 0.3630 -0.6378
vn -0.9515 0.2087 -0.2262
vn -0.9804 0.1957 0.0232
vn -0.4345 0.5455 0.7166
vn -0.3162 0.1112 0.9422
vn 0.7891 0.3070 0.5320
vn 0.3339 -0.3326 -0.8820
vn -0.7598 -0.2297 -0.6082
vn -0.6314 -0.4785 0.6102
vn 0.4777 -0.1597 0.8639
vn 0.9983 0.0578 0.0015
vn 0.3731 -0.7333 -0.5683
vn 0.4792 -0.6862 0.5473
usemtl Material.003
s off
f 1//1 7//1 3//1
f 1//2 3//2 5//2
f 1//3 5//3 9//3
f 11//4 10//4 6//4
f 4//5 11//5 6//5
f 12//6 4//6 6//6
f 6//7 10//7 9//7
f 9//8 12//8 6//8
f 9//9 5//9 12//9
f 3//10 12//10 5//10
f 2//11 4//11 12//11
f 3//12 2//12 12//12
f 2//13 11//13 4//13
f 2//14 8//14 11//14
f 11//15 8//15 10//15
f 10//16 1//16 9//16
f 7//17 2//17 3//17
f 7//18 8//18 2//18
f 7//19 10//19 8//19
f 7//20 1//20 10//20
f 13//21 19//21 23//21
f 13//22 23//22 14//22
f 14//23 23//23 17//23
f 14//24 17//24 29//24
f 24//25 29//25 25//25
f 15//26 30//26 18//26
f 16//27 15//27 31//27
f 17//28 16//28 31//28
f 25//29 32//29 30//29
f 30//30 32//30 18//30
f 32//31 31//31 18//31
f 32//32 17//32 31//32
f 31//33 15//33 18//33
f 25//34 29//34 32//34
f 29//35 17//35 32//35
f 28//36 16//36 17//36
f 27//37 15//37 16//37
f 26//38 30//38 15//38
f 26//39 25//39 30//39
f 24//40 14//40 29//40
f 17//41 23//41 28//41
f 23//42 22//42 28//42
f 28//43 27//43 16//43
f 28//44 22//44 27//44
f 22//45 20//45 27//45
f 27//46 26//46 15//46
f 27//47 20//47 26//47
f 20//48 21//48 26//48
f 26//49 21//49 25//49
f 21//50 24//50 25//50
f 13//51 14//51 24//51
f 23//52 19//52 22//52
f 19//53 20//53 22//53
f 21//54 13//54 24//54
f 21//55 19//55 13//55
f 19//56 21//56 20//56
f 39//57 33//57 36//57
f 33//58 40//58 34//58
f 33//59 34//59 35//59
f 35//60 37//60 42//60
f 42//61 37//61 38//61
f 44//62 42//62 38//62
f 38//63 37//63 45//63
f 45//64 43//64 38//64
f 43//65 44//65 38//65
f 36//66 42//66 44//66
f 34//67 45//67 37//67
f 34//68 41//68 45//68
f 41//69 43//69 45//69
f 41//70 40//70 43//70
f 43//71 39//71 44//71
f 36//72 35//72 42//72
f 37//73 35//73 34//73
f 34//74 40//74 41//74
f 40//75 39//75 43//75
f 39//76 36//76 44//76
f 33//77 35//77 36//77
f 33//78 39//78 40//78
