# Blender v2.77 (sub 0) OBJ File: 'floating-island-large.blend'
# www.blender.org
mtllib floating-island-large.mtl
o rock.002_Icosphere.004
v -0.250997 1.773576 -1.755094
v -1.065080 1.725627 -1.570968
v -0.636086 2.145271 -1.855501
v -0.566829 2.266369 -1.535657
v -0.566829 1.606586 -1.646478
v -0.636086 1.727684 -1.326634
v -0.636086 1.953144 -1.915722
v -0.158678 2.010336 -1.736266
v -0.107412 1.885127 -1.491217
v -0.703306 2.020958 -1.268982
v -0.914802 1.825535 -1.867804
v -1.167267 1.919811 -1.490743
v -0.250997 2.099379 -1.427041
v -1.065080 2.147328 -1.611168
v -1.224580 1.712088 -1.435429
v -0.292500 2.027992 -1.569140
v -1.263628 2.042294 -1.326927
v -1.339120 2.027992 -1.645715
v -0.767954 2.027992 -1.828434
v -0.906469 2.259912 -1.453179
v -0.767955 1.600128 -1.564000
v -0.359806 1.767118 -1.507465
v -0.687843 1.767119 -1.772167
v -0.837212 1.721227 -1.244156
v -1.222302 1.767118 -1.672616
v -0.558496 2.040963 -1.231853
v -0.837212 1.913353 -1.183935
v -0.705472 2.227854 -1.613990
vn 0.0788 -0.6440 -0.7610
vn -0.1751 -0.9327 0.3152
vn 0.1006 -0.5348 -0.8390
vn -0.4189 -0.5262 0.7400
vn 0.3580 -0.0655 -0.9314
vn 0.3400 0.8527 -0.3965
vn -0.1751 0.9327 -0.3152
vn -0.2716 0.7734 0.5728
vn 0.1258 0.6971 0.7059
vn 0.4922 0.8645 -0.1020
vn -0.2882 0.2864 -0.9137
vn -0.4475 0.4205 -0.7893
vn -0.4525 0.5674 0.6880
vn 0.8400 0.5339 0.0970
vn 0.3072 0.2846 -0.9081
vn -0.8210 0.0687 -0.5669
vn -0.8341 -0.2322 -0.5004
vn -0.3697 -0.2601 0.8920
vn 0.3379 -0.0550 0.9396
vn 0.3252 -0.1101 0.9392
vn 0.8829 -0.3167 -0.3465
vn -0.2708 -0.8625 -0.4274
vn 0.3735 -0.8379 0.3981
vn 0.4914 -0.8654 0.0984
vn -0.1381 -0.9358 0.3244
vn -0.4120 -0.3280 0.8501
vn 0.4784 -0.0423 -0.8771
vn 0.7830 -0.0555 0.6196
vn -0.9535 -0.1897 0.2343
vn -0.3045 -0.0382 -0.9518
vn 0.3753 0.6210 -0.6881
vn 0.3844 0.8830 0.2692
vn -0.1036 0.6208 0.7771
vn -0.4981 0.8635 0.0792
vn -0.2032 0.7451 -0.6352
vn -0.2434 0.8468 -0.4730
vn 0.3866 0.8685 0.3101
vn -0.1104 0.5516 0.8267
vn -0.9118 -0.3979 -0.1011
vn -0.3797 -0.2767 0.8828
vn 0.2882 -0.2864 0.9137
vn 0.4664 -0.4362 0.7696
vn 0.5935 -0.3270 -0.7355
vn -0.1769 -0.2591 -0.9495
vn -0.2901 -0.9316 -0.2189
vn 0.3008 -0.8685 0.3940
vn -0.1209 -0.7511 -0.6490
vn 0.3882 -0.7860 -0.4811
usemtl None
s off
f 1//1 5//1 11//1
f 5//2 6//2 2//2
f 1//3 11//3 7//3
f 2//4 6//4 12//4
f 1//5 7//5 8//5
f 8//6 3//6 4//6
f 3//7 14//7 4//7
f 14//8 10//8 4//8
f 10//9 13//9 4//9
f 13//10 8//10 4//10
f 7//11 11//11 3//11
f 11//12 14//12 3//12
f 12//13 10//13 14//13
f 9//14 8//14 13//14
f 8//15 7//15 3//15
f 11//16 12//16 14//16
f 11//17 2//17 12//17
f 12//18 6//18 10//18
f 10//19 9//19 13//19
f 10//20 6//20 9//20
f 9//21 1//21 8//21
f 5//22 2//22 11//22
f 5//23 9//23 6//23
f 5//24 1//24 9//24
f 21//25 24//25 15//25
f 15//26 24//26 17//26
f 23//27 19//27 16//27
f 22//28 16//28 26//28
f 15//29 17//29 18//29
f 25//30 18//30 19//30
f 16//31 19//31 28//31
f 26//32 16//32 20//32
f 17//33 26//33 20//33
f 18//34 17//34 20//34
f 19//35 18//35 28//35
f 28//36 18//36 20//36
f 20//37 16//37 28//37
f 27//38 26//38 17//38
f 25//39 15//39 18//39
f 17//40 24//40 27//40
f 27//41 24//41 26//41
f 24//42 22//42 26//42
f 22//43 23//43 16//43
f 23//44 25//44 19//44
f 21//45 15//45 25//45
f 21//46 22//46 24//46
f 23//47 21//47 25//47
f 21//48 23//48 22//48
o rock.001_Icosphere.003
v 0.885187 1.761511 0.961301
v 0.071104 1.713562 1.145427
v 0.500097 2.133206 0.860894
v 0.569354 2.254305 1.180738
v 0.569354 1.594521 1.069917
v 0.500097 1.715619 1.389761
v 0.500097 1.941079 0.800673
v 0.977505 1.998271 0.980129
v 1.028771 1.873062 1.225178
v 0.432877 2.008893 1.447413
v 0.221381 1.813470 0.848591
v -0.031083 1.907746 1.225652
v 0.885187 2.087314 1.289354
v 0.071104 2.135263 1.105227
v -0.088397 1.700023 1.280966
v 0.843684 2.015928 1.147256
v -0.127444 2.030229 1.389469
v -0.202937 2.015927 1.070680
v 0.368230 2.015927 0.887961
v 0.229715 2.247847 1.263216
v 0.368229 1.588064 1.152395
v 0.776378 1.755053 1.208931
v 0.448340 1.755054 0.944228
v 0.298972 1.709162 1.472239
v -0.086118 1.755054 1.043779
v 0.577688 2.028898 1.484542
v 0.298972 1.901289 1.532460
v 0.430711 2.215790 1.102405
vn 0.0788 -0.6440 -0.7610
vn -0.1751 -0.9327 0.3152
vn 0.1006 -0.5348 -0.8390
vn -0.4189 -0.5262 0.7400
vn 0.3580 -0.0655 -0.9314
vn 0.3400 0.8527 -0.3965
vn -0.1751 0.9327 -0.3152
vn -0.2716 0.7734 0.5728
vn 0.1258 0.6971 0.7059
vn 0.4922 0.8645 -0.1020
vn -0.2882 0.2864 -0.9137
vn -0.4475 0.4205 -0.7893
vn -0.4525 0.5674 0.6880
vn 0.8400 0.5339 0.0970
vn 0.3072 0.2846 -0.9081
vn -0.8210 0.0687 -0.5669
vn -0.8341 -0.2322 -0.5004
vn -0.3697 -0.2601 0.8920
vn 0.3379 -0.0550 0.9396
vn 0.3252 -0.1101 0.9392
vn 0.8829 -0.3167 -0.3465
vn -0.2708 -0.8625 -0.4274
vn 0.3735 -0.8379 0.3981
vn 0.4914 -0.8654 0.0984
vn -0.1381 -0.9358 0.3244
vn -0.4120 -0.3280 0.8501
vn 0.4784 -0.0423 -0.8771
vn 0.7830 -0.0555 0.6196
vn -0.9535 -0.1897 0.2343
vn -0.3045 -0.0382 -0.9518
vn 0.3753 0.6210 -0.6881
vn 0.3844 0.8830 0.2692
vn -0.1036 0.6208 0.7771
vn -0.4981 0.8635 0.0792
vn -0.2032 0.7451 -0.6352
vn -0.2434 0.8468 -0.4730
vn 0.3866 0.8685 0.3101
vn -0.1104 0.5516 0.8267
vn -0.9118 -0.3979 -0.1011
vn -0.3797 -0.2767 0.8828
vn 0.2882 -0.2864 0.9137
vn 0.4664 -0.4362 0.7696
vn 0.5935 -0.3270 -0.7355
vn -0.1769 -0.2591 -0.9495
vn -0.2901 -0.9316 -0.2189
vn 0.3008 -0.8685 0.3940
vn -0.1209 -0.7511 -0.6490
vn 0.3882 -0.7860 -0.4811
usemtl None
s off
f 29//49 33//49 39//49
f 33//50 34//50 30//50
f 29//51 39//51 35//51
f 30//52 34//52 40//52
f 29//53 35//53 36//53
f 36//54 31//54 32//54
f 31//55 42//55 32//55
f 42//56 38//56 32//56
f 38//57 41//57 32//57
f 41//58 36//58 32//58
f 35//59 39//59 31//59
f 39//60 42//60 31//60
f 40//61 38//61 42//61
f 37//62 36//62 41//62
f 36//63 35//63 31//63
f 39//64 40//64 42//64
f 39//65 30//65 40//65
f 40//66 34//66 38//66
f 38//67 37//67 41//67
f 38//68 34//68 37//68
f 37//69 29//69 36//69
f 33//70 30//70 39//70
f 33//71 37//71 34//71
f 33//72 29//72 37//72
f 49//73 52//73 43//73
f 43//74 52//74 45//74
f 51//75 47//75 44//75
f 50//76 44//76 54//76
f 43//77 45//77 46//77
f 53//78 46//78 47//78
f 44//79 47//79 56//79
f 54//80 44//80 48//80
f 45//81 54//81 48//81
f 46//82 45//82 48//82
f 47//83 46//83 56//83
f 56//84 46//84 48//84
f 48//85 44//85 56//85
f 55//86 54//86 45//86
f 53//87 43//87 46//87
f 45//88 52//88 55//88
f 55//89 52//89 54//89
f 52//90 50//90 54//90
f 50//91 51//91 44//91
f 51//92 53//92 47//92
f 49//93 43//93 53//93
f 49//94 50//94 52//94
f 51//95 49//95 53//95
f 49//96 51//96 50//96
o rock_Icosphere.001
v 1.142796 2.128354 0.998499
v 0.328713 2.080405 1.182625
v 0.757707 2.500049 0.898092
v 0.826964 2.621147 1.217936
v 0.826964 1.961364 1.107115
v 0.757706 2.082462 1.426959
v 0.757707 2.307922 0.837871
v 1.235115 2.365114 1.017327
v 1.286380 2.239905 1.262376
v 0.690486 2.375736 1.484611
v 0.478991 2.180313 0.885789
v 0.226526 2.274589 1.262850
v 1.142796 2.454157 1.326552
v 0.328713 2.502106 1.142425
v 0.169212 2.066866 1.318164
v 1.101293 2.382771 1.184453
v 0.130165 2.397072 1.426666
v 0.054672 2.382770 1.107878
v 0.625839 2.382770 0.925159
v 0.487324 2.614690 1.300414
v 0.625838 1.954906 1.189593
v 1.033987 2.121896 1.246128
v 0.705949 2.121897 0.981426
v 0.556581 2.076005 1.509437
v 0.171491 2.121896 1.080977
v 0.835297 2.395741 1.521740
v 0.556581 2.268131 1.569658
v 0.688320 2.582632 1.139603
vn 0.0788 -0.6440 -0.7610
vn -0.1751 -0.9327 0.3152
vn 0.1006 -0.5348 -0.8390
vn -0.4189 -0.5262 0.7400
vn 0.3580 -0.0655 -0.9314
vn 0.3400 0.8527 -0.3965
vn -0.1751 0.9327 -0.3152
vn -0.2716 0.7734 0.5728
vn 0.1258 0.6971 0.7059
vn 0.4922 0.8645 -0.1020
vn -0.2882 0.2864 -0.9137
vn -0.4475 0.4205 -0.7893
vn -0.4525 0.5674 0.6880
vn 0.8400 0.5339 0.0970
vn 0.3072 0.2846 -0.9081
vn -0.8210 0.0687 -0.5669
vn -0.8341 -0.2322 -0.5004
vn -0.3697 -0.2601 0.8920
vn 0.3379 -0.0550 0.9396
vn 0.3252 -0.1101 0.9392
vn 0.8829 -0.3167 -0.3465
vn -0.2708 -0.8625 -0.4274
vn 0.3735 -0.8379 0.3981
vn 0.4914 -0.8654 0.0984
vn -0.1381 -0.9358 0.3244
vn -0.4120 -0.3280 0.8501
vn 0.4784 -0.0423 -0.8771
vn 0.7830 -0.0555 0.6196
vn -0.9535 -0.1897 0.2343
vn -0.3045 -0.0382 -0.9518
vn 0.3753 0.6210 -0.6881
vn 0.3844 0.8830 0.2692
vn -0.1036 0.6208 0.7771
vn -0.4981 0.8635 0.0792
vn -0.2032 0.7451 -0.6352
vn -0.2434 0.8468 -0.4730
vn 0.3866 0.8685 0.3101
vn -0.1104 0.5516 0.8267
vn -0.9118 -0.3979 -0.1011
vn -0.3797 -0.2767 0.8828
vn 0.2882 -0.2864 0.9137
vn 0.4664 -0.4362 0.7696
vn 0.5935 -0.3270 -0.7355
vn -0.1769 -0.2591 -0.9495
vn -0.2901 -0.9316 -0.2189
vn 0.3008 -0.8685 0.3940
vn -0.1209 -0.7511 -0.6490
vn 0.3882 -0.7860 -0.4811
usemtl None
s off
f 57//97 61//97 67//97
f 61//98 62//98 58//98
f 57//99 67//99 63//99
f 58//100 62//100 68//100
f 57//101 63//101 64//101
f 64//102 59//102 60//102
f 59//103 70//103 60//103
f 70//104 66//104 60//104
f 66//105 69//105 60//105
f 69//106 64//106 60//106
f 63//107 67//107 59//107
f 67//108 70//108 59//108
f 68//109 66//109 70//109
f 65//110 64//110 69//110
f 64//111 63//111 59//111
f 67//112 68//112 70//112
f 67//113 58//113 68//113
f 68//114 62//114 66//114
f 66//115 65//115 69//115
f 66//116 62//116 65//116
f 65//117 57//117 64//117
f 61//118 58//118 67//118
f 61//119 65//119 62//119
f 61//120 57//120 65//120
f 77//121 80//121 71//121
f 71//122 80//122 73//122
f 79//123 75//123 72//123
f 78//124 72//124 82//124
f 71//125 73//125 74//125
f 81//126 74//126 75//126
f 72//127 75//127 84//127
f 82//128 72//128 76//128
f 73//129 82//129 76//129
f 74//130 73//130 76//130
f 75//131 74//131 84//131
f 84//132 74//132 76//132
f 76//133 72//133 84//133
f 83//134 82//134 73//134
f 81//135 71//135 74//135
f 73//136 80//136 83//136
f 83//137 80//137 82//137
f 80//138 78//138 82//138
f 78//139 79//139 72//139
f 79//140 81//140 75//140
f 77//141 71//141 81//141
f 77//142 78//142 80//142
f 79//143 77//143 81//143
f 77//144 79//144 78//144
o island_Icosphere
v 0.937781 -1.951950 0.476985
v -0.000975 3.564570 -3.172711
v 0.427688 1.217993 1.451249
v 0.612556 -3.017354 0.277669
v 0.043084 -2.993751 -2.190813
v -2.428938 3.612917 2.711078
v -1.178915 0.757596 2.618526
v -1.488290 -1.072877 -0.057697
v -0.895410 2.769464 -3.343530
v -3.599054 3.234638 0.455162
v 2.448605 3.405127 0.460871
v 1.789382 2.846314 -1.860027
v 1.688843 3.174711 -1.706912
v 0.077541 1.800456 -3.299751
v 0.763965 -0.110130 -1.980373
v 0.570513 2.058137 1.131635
v 0.073448 3.441554 3.366883
v 1.409587 -0.646197 0.324070
v -0.015017 -2.733448 1.995796
v 0.153712 -2.904283 -0.940523
v -0.448195 3.119089 -3.400162
v -0.478685 2.008186 -1.641692
v -0.448195 3.318674 -3.036890
v -0.488413 3.519982 3.596779
v -0.856095 0.382202 1.780453
v -0.448196 1.875807 3.626477
v -0.437613 -0.243312 -0.849926
v -0.685773 -4.369147 -0.060878
v -0.973931 3.504307 -3.137293
v -0.976351 2.465195 3.304413
v -1.609138 0.605929 1.226434
v -1.412412 0.965659 -1.247274
v -3.129643 3.444452 -1.656359
v -1.521251 0.197465 -1.913071
v -3.449708 3.361546 0.928998
v -2.231126 1.202516 0.312141
v -1.641293 0.266279 -1.151865
vn 0.0288 0.9992 -0.0281
vn 0.9422 -0.2663 -0.2035
vn 0.6109 0.0839 -0.7873
vn 0.4040 -0.1112 0.9080
vn -0.5242 0.0902 -0.8468
vn -0.8756 0.3548 0.3278
vn 0.3846 0.0833 -0.9193
vn 0.2233 -0.6156 0.7558
vn -0.9184 -0.2680 -0.2912
vn -0.9704 -0.2191 0.1015
vn -0.5319 0.7422 -0.4078
vn 0.9303 0.0294 0.3657
vn 0.1275 -0.3544 0.9264
vn -0.9797 -0.0821 -0.1827
vn -0.9124 -0.0547 0.4057
vn -0.9954 -0.0920 0.0266
vn 0.9775 -0.1990 0.0698
vn -0.8528 -0.5148 -0.0879
vn 0.9426 -0.2847 0.1744
vn 0.7921 -0.3293 -0.5138
vn -0.8285 -0.5594 0.0239
vn -0.7624 -0.6391 0.1016
vn -0.8547 -0.4167 0.3095
vn -0.7544 -0.5346 0.3809
vn -0.6797 -0.5289 0.5082
vn -0.6584 -0.5949 0.4610
vn -0.5636 0.8249 -0.0433
vn -0.8780 -0.4162 -0.2365
vn -0.5499 -0.2084 -0.8088
vn -0.9224 0.0098 -0.3860
vn 0.5755 -0.6847 -0.4472
vn -0.0275 -0.3321 -0.9429
vn -0.2537 -0.4805 -0.8395
vn -0.9493 -0.2313 0.2131
vn -0.6215 -0.3024 0.7227
vn -0.4273 -0.8751 0.2274
vn -0.6678 -0.2079 0.7147
vn -0.5184 0.0028 0.8551
vn -0.4168 -0.0586 0.9071
vn 0.3725 0.8133 -0.4469
vn -0.2962 0.2286 -0.9274
vn -0.5305 -0.1283 -0.8379
vn -0.6198 -0.1113 -0.7768
vn 0.7210 -0.6103 -0.3282
vn 0.4424 -0.7425 0.5030
vn -0.9012 -0.2174 0.3750
vn 0.9211 -0.0500 0.3860
vn -0.2777 0.7994 0.5328
vn 0.5132 -0.7296 -0.4520
vn -0.8921 -0.3749 -0.2523
vn -0.9485 -0.0649 -0.3101
vn 0.9690 -0.2372 -0.0688
vn 0.8923 -0.3152 -0.3233
vn 0.8862 -0.2908 -0.3608
vn 0.8781 -0.3024 0.3707
vn 0.7419 0.0302 0.6699
vn 0.9698 -0.0767 0.2317
vn 0.9644 -0.0667 0.2557
vn 0.6142 -0.6026 0.5095
vn 0.7730 -0.1482 -0.6168
vn 0.7024 -0.2160 -0.6782
vn 0.9074 -0.3029 -0.2912
vn 0.8432 0.4166 -0.3398
vn 0.6360 0.4774 -0.6063
usemtl island_green
s off
f 119//145 90//145 108//145 101//145 95//145 97//145 107//145 113//145 117//145
usemtl island_brown
f 85//146 96//146 95//146
f 86//147 96//147 98//147
f 85//148 95//148 100//148
f 85//149 100//149 102//149
f 85//150 102//150 99//150
f 86//151 98//151 105//151
f 87//152 101//152 108//152
f 88//153 103//153 109//153
f 89//154 104//154 111//154
f 86//155 105//155 107//155
f 87//156 108//156 110//156
f 88//157 109//157 112//157
f 89//158 111//158 106//158
f 91//159 114//159 120//159
f 92//160 115//160 121//160
f 93//161 116//161 118//161
f 118//162 121//162 94//162
f 118//163 116//163 121//163
f 116//164 92//164 121//164
f 121//165 120//165 94//165
f 121//166 115//166 120//166
f 115//167 91//167 120//167
f 120//168 119//168 94//168
f 120//169 114//169 119//169
f 114//170 90//170 119//170
f 119//171 117//171 94//171
f 117//172 118//172 94//172
f 117//173 113//173 118//173
f 113//174 93//174 118//174
f 106//175 116//175 93//175
f 106//176 111//176 116//176
f 111//177 92//177 116//177
f 112//178 115//178 92//178
f 112//179 109//179 115//179
f 109//180 91//180 115//180
f 110//181 114//181 91//181
f 110//182 108//182 114//182
f 108//183 90//183 114//183
f 107//184 105//184 113//184
f 105//185 93//185 113//185
f 111//186 112//186 92//186
f 111//187 104//187 112//187
f 104//188 88//188 112//188
f 109//189 110//189 91//189
f 109//190 103//190 110//190
f 103//191 87//191 110//191
f 97//192 86//192 107//192
f 105//193 106//193 93//193
f 105//194 98//194 106//194
f 98//195 89//195 106//195
f 99//196 104//196 89//196
f 99//197 102//197 104//197
f 102//198 88//198 104//198
f 102//199 103//199 88//199
f 102//200 100//200 103//200
f 100//201 87//201 103//201
f 100//202 101//202 87//202
f 100//203 95//203 101//203
f 98//204 99//204 89//204
f 98//205 96//205 99//205
f 96//206 85//206 99//206
f 95//207 96//207 97//207
f 96//208 86//208 97//208
