# Blender v2.77 (sub 0) OBJ File: 'rainbow.blend'
# www.blender.org
mtllib rainbow.mtl
o Icosphere.000
v 0.502610 -0.133297 0.055787
v 0.761783 -0.133296 0.034153
v 0.521802 0.133729 0.226755
v 0.755711 -0.284147 0.249253
v 0.454650 -0.096220 0.364877
v 0.859647 0.034484 0.251327
v 0.694638 -0.053706 0.448107
v 0.684026 0.105715 0.074782
v 0.787889 -0.429312 -0.161076
v 1.155877 0.015172 0.304012
v 0.664935 -0.043917 -0.120817
v 0.945619 0.205150 0.095083
v 1.078481 -0.559056 0.026918
v 1.111696 -0.282255 0.389550
v 1.381527 -0.281786 0.012184
v 0.720379 -0.410418 0.197440
v 1.313074 0.002627 -0.147239
v 0.692329 -0.080173 0.258875
v 0.969065 -0.283115 -0.356689
v 1.000431 0.071134 -0.267874
v 1.471730 -0.429836 -0.251732
v 1.190670 -0.308551 -0.082439
v 1.241536 -0.345539 -0.356243
v 1.629170 -0.267955 -0.366642
v 1.502307 -0.310955 0.005733
v 1.213861 -0.087320 -0.406328
v 1.581442 -0.041360 -0.040991
v 1.514706 0.065112 -0.324351
v 1.268195 -0.038992 -0.004634
vn 0.9344 -0.3036 -0.1865
vn -0.3586 0.5554 0.7503
vn 0.2017 0.8195 0.5364
vn 0.2723 0.9554 0.1146
vn 0.7318 0.3386 -0.5914
vn -0.5560 0.4762 -0.6813
vn -0.0824 0.1409 -0.9866
vn -0.9686 0.1796 -0.1718
vn 0.7941 -0.2626 0.5482
vn -0.0479 -0.8172 -0.5744
vn -0.5236 -0.8517 0.0209
vn -0.1356 -0.6676 0.7320
vn -0.3936 -0.9189 -0.0257
vn -0.9448 -0.2844 -0.1629
vn -0.6727 -0.1387 -0.7268
vn 0.5603 0.8101 0.1727
vn -0.2008 0.6157 0.7620
vn -0.7082 0.6962 0.1176
vn 0.3096 0.9062 -0.2878
vn -0.4420 0.8177 -0.3687
vn 0.3896 0.1914 -0.9009
vn -0.4600 0.2540 -0.8508
vn -0.1524 0.2940 0.9436
vn 0.8779 0.3769 0.2954
vn -0.9934 -0.0960 0.0625
vn -0.3781 -0.2003 0.9038
vn 0.8125 0.0464 0.5811
vn 0.6461 -0.2489 -0.7215
vn 0.0187 -0.8091 -0.5874
vn -0.0392 -0.7925 0.6085
vn 0.5294 -0.6099 -0.5897
vn 0.6175 -0.6515 0.4407
vn -0.1281 -0.8945 0.4283
vn -0.3662 -0.9288 0.0574
vn -0.4410 0.8962 -0.0482
vn 0.0468 0.9387 0.3417
vn 0.1716 0.1819 -0.9682
vn -0.9635 0.2481 0.1005
vn 0.1152 0.1367 0.9839
vn 0.9376 0.3343 -0.0952
vn 0.0115 -0.1892 -0.9819
vn -0.9771 -0.1364 -0.1631
vn -0.2684 -0.1951 0.9433
vn 0.9304 -0.2226 0.2913
vn 0.1084 -0.6434 -0.7578
vn 0.7680 -0.6113 0.1911
usemtl White
s off
f 4//1 2//1 6//1
f 5//2 7//2 3//2
f 3//3 7//3 6//3
f 6//4 8//4 3//4
f 2//5 8//5 6//5
f 1//6 3//6 8//6
f 2//7 1//7 8//7
f 1//8 5//8 3//8
f 7//9 4//9 6//9
f 4//10 1//10 2//10
f 4//11 5//11 1//11
f 4//12 7//12 5//12
f 13//13 16//13 9//13
f 9//14 16//14 11//14
f 9//15 11//15 19//15
f 10//16 17//16 12//16
f 18//17 10//17 12//17
f 11//18 18//18 12//18
f 17//19 20//19 12//19
f 20//20 11//20 12//20
f 17//21 19//21 20//21
f 19//22 11//22 20//22
f 14//23 10//23 18//23
f 15//24 17//24 10//24
f 11//25 16//25 18//25
f 18//26 16//26 14//26
f 14//27 15//27 10//27
f 15//28 19//28 17//28
f 13//29 9//29 19//29
f 13//30 14//30 16//30
f 15//31 13//31 19//31
f 13//32 15//32 14//32
f 21//33 25//33 22//33
f 21//34 22//34 23//34
f 28//35 26//35 29//35
f 29//36 27//36 28//36
f 24//37 26//37 28//37
f 22//38 29//38 26//38
f 29//39 25//39 27//39
f 27//40 24//40 28//40
f 24//41 23//41 26//41
f 26//42 23//42 22//42
f 22//43 25//43 29//43
f 25//44 24//44 27//44
f 21//45 23//45 24//45
f 21//46 24//46 25//46
o Torus
v 1.258246 0.000666 0.000307
v 1.172875 -0.000010 0.193876
v 0.837060 -0.000277 0.209828
v 0.753134 0.000273 0.000301
v 1.175925 0.335930 0.125323
v 0.818215 0.338917 0.214607
v 1.130135 0.557321 -0.000894
v 0.960636 0.500256 0.248571
v 0.667444 0.438588 0.119971
v 0.680418 0.335545 -0.000152
v 0.961853 0.756247 0.123372
v 0.567691 0.849610 0.250000
v 0.826343 0.942291 0.000163
v 0.492468 1.039821 0.218080
v 0.456085 0.762807 0.215773
v 0.420037 0.628634 0.000537
v 0.617637 1.053204 0.127446
v 0.551758 1.124432 -0.000040
v 0.172368 0.782741 0.122756
v 0.160474 1.246399 -0.000128
v 0.007415 1.239776 0.123231
v 0.098532 0.748420 -0.000154
v -0.047280 1.009290 0.250000
v -0.219234 0.874718 0.214500
v -0.387038 1.083491 0.218081
v -0.324831 1.212278 -0.000563
v -0.290785 0.702012 0.000823
v -0.350640 0.711022 0.124368
v -0.763556 0.970372 0.130959
v -0.724945 0.739199 0.249539
v -0.693813 1.042803 -0.000042
v -0.940071 0.827682 -0.000041
v -0.998210 0.556156 0.217450
v -0.796214 0.408450 0.215282
v -0.687942 0.397187 0.124016
v -0.598888 0.459547 -0.000152
v -1.124049 0.554316 0.000165
v -1.169391 0.379861 0.123024
v -0.712100 0.240175 0.000027
v -1.227496 0.244176 -0.000303
v -1.016824 0.000083 0.250624
v -0.753134 0.000273 0.000301
v -1.250000 0.000000 -0.000000
v -1.161981 -0.000231 0.199370
v -0.804936 0.000225 0.155919
vn 0.6468 0.3326 0.6863
vn 0.4072 0.3997 0.8212
vn 0.0236 0.4745 0.8799
vn -0.3117 0.3602 0.8793
vn -0.7543 0.5129 0.4099
vn -0.5901 0.1479 0.7937
vn 0.5787 0.1580 0.8001
vn 0.4615 0.5252 0.7150
vn 0.2542 0.8422 0.4754
vn -0.3223 0.9277 0.1883
vn -0.9252 -0.2571 0.2791
vn -0.6709 -0.5971 0.4397
vn 0.1164 -0.9725 0.2016
vn 0.6361 -0.7386 0.2233
vn 0.9494 -0.2245 0.2199
vn 0.8231 -0.4245 0.3772
vn -0.5670 -0.8147 -0.1218
vn -0.3166 -0.8472 0.4267
vn 0.1350 -0.9813 0.1370
vn -0.2048 -0.0252 0.9785
vn -0.1016 -0.1183 0.9878
vn -0.1778 -0.1546 0.9718
vn -0.0514 -0.2396 0.9695
vn 0.1017 -0.1241 0.9870
vn 0.4956 -0.1945 0.8465
vn 0.4041 -0.1401 0.9039
vn 0.1844 -0.4642 0.8663
vn 0.5442 -0.6375 0.5454
vn -0.5511 -0.0424 0.8334
vn -0.6725 -0.5758 0.4650
vn -0.3068 -0.4481 0.8397
vn -0.1576 -0.9477 0.2775
vn 0.0748 -0.5264 0.8470
vn 0.6319 -0.1247 0.7650
vn 0.9124 0.0739 0.4026
vn 0.9737 0.2242 0.0400
vn 0.2720 0.8882 0.3702
vn 0.8037 0.4113 0.4299
vn 0.6053 0.6963 0.3857
vn 0.5439 0.8202 0.1772
vn -0.0701 0.9970 -0.0334
vn -0.2705 0.7898 0.5505
vn -0.7411 0.5020 0.4458
vn -0.9441 0.3147 0.0985
vn -0.9194 0.0698 0.3871
vn 0.7831 0.6178 0.0715
vn -0.4016 0.8751 0.2701
vn -0.6565 0.7515 0.0660
vn 0.0473 -0.0887 0.9949
vn 0.2224 0.2462 0.9434
vn 0.0477 0.1836 0.9818
vn 0.0241 0.4863 0.8735
vn -0.0601 0.1492 0.9870
vn -0.4077 0.4716 0.7819
vn -0.1586 0.0641 0.9853
vn -0.3323 0.0672 0.9408
usemtl Orange
s off
f 34//47 40//47 37//47
f 40//48 43//48 37//48
f 50//49 54//49 43//49
f 58//50 62//50 54//50
f 58//51 67//51 62//51
f 67//52 73//52 62//52
f 31//53 34//53 37//53
f 40//54 46//54 43//54
f 46//55 50//55 43//55
f 50//56 58//56 54//56
usemtl Violet
f 33//57 32//57 38//57 39//57
f 38//58 45//58 39//58
f 48//59 56//59 51//59
f 56//60 57//60 64//60 65//60
f 64//61 74//61 71//61 68//61
f 64//62 68//62 65//62
f 38//63 48//63 45//63
f 45//64 48//64 51//64
f 48//65 57//65 56//65
usemtl Green
f 32//66 37//66 35//66
f 37//67 41//67 35//67
f 41//68 44//68 35//68
f 41//69 52//69 53//69 44//69
f 59//70 63//70 53//70
f 59//71 70//71 63//71
f 70//72 74//72 63//72
f 52//73 59//73 53//73
usemtl Blue
f 53//74 63//74 64//74 57//74
f 32//75 35//75 38//75
f 35//76 44//76 38//76
f 38//77 44//77 48//77
f 44//78 53//78 48//78
f 48//79 53//79 57//79
f 64//80 63//80 74//80
usemtl Red
f 30//81 34//81 31//81
f 30//82 36//82 34//82
f 46//83 47//83 49//83 50//83
f 36//84 40//84 34//84
f 42//85 46//85 40//85
f 42//86 47//86 46//86
f 49//87 55//87 50//87
f 55//88 58//88 50//88
f 61//89 66//89 67//89 58//89
f 66//90 69//90 67//90
f 69//91 72//91 73//91 67//91
f 36//92 42//92 40//92
f 55//93 60//93 58//93
f 60//94 61//94 58//94
usemtl Yellow
f 32//95 31//95 37//95
f 37//96 43//96 41//96
f 41//97 43//97 52//97
f 43//98 54//98 52//98
f 52//99 54//99 59//99
f 54//100 62//100 59//100
f 59//101 62//101 70//101
f 62//102 73//102 70//102
o Icosphere.002_Icosphere.007
v -0.746229 -0.310062 0.135487
v -0.843298 -0.202560 0.551475
v -0.945193 -0.147631 0.292713
v -0.659209 -0.080111 0.549375
v -0.808110 -0.075511 0.162063
v -0.542797 -0.016186 0.390538
v -0.826757 -0.425186 0.342431
v -0.635424 -0.399540 0.476945
v -0.610550 -0.103314 0.126559
v -0.507927 -0.284792 0.212424
v -0.495226 -0.235148 0.477466
v -0.760098 0.048546 0.358030
v -1.335396 -0.435764 0.049162
v -1.283336 -0.331891 0.336299
v -0.749243 -0.069419 -0.209984
v -0.663915 -0.115418 0.193547
v -1.008512 -0.002825 0.448236
v -0.824186 0.182445 -0.045987
v -1.172794 -0.506955 -0.094378
v -0.944003 -0.435284 -0.208116
v -1.307949 -0.239092 -0.243977
v -0.861558 -0.479726 0.196189
v -1.056555 -0.467924 0.314295
v -1.450437 -0.162283 0.138163
v -1.305074 0.101522 -0.147342
v -1.142908 -0.116722 -0.343476
v -0.748708 -0.329221 -0.155920
v -0.783910 -0.310245 0.327947
v -1.350022 0.043099 0.272905
v -1.042176 0.181803 -0.197310
v -0.759017 0.130852 0.166623
v -1.188695 0.236768 0.156226
v -1.582860 -0.171078 -0.334341
v -1.277601 -0.185452 -0.106342
v -1.560775 -0.078602 -0.059874
v -1.681137 0.098392 -0.336258
v -1.363880 0.140064 -0.004251
v -1.321467 0.316444 -0.235906
v -1.519199 0.035491 -0.534001
v -1.297987 -0.177439 -0.458681
v -1.131816 -0.081754 -0.253258
v -1.546846 0.199832 -0.094481
v -1.225986 0.117574 -0.523215
v -1.461338 0.290243 -0.430701
v -1.136275 0.157004 -0.175856
vn -0.7478 -0.4123 -0.5204
vn -0.6618 -0.0903 -0.7442
vn -0.1673 0.0673 -0.9836
vn 0.9802 0.1809 -0.0808
vn 0.6567 0.3972 0.6411
vn 0.1837 0.8579 0.4799
vn 0.8789 0.3376 -0.3370
vn 0.3156 0.8740 -0.3695
vn 0.0218 0.8423 -0.5386
vn -0.6466 0.7061 -0.2886
vn -0.4166 0.6374 0.6482
vn -0.7286 0.5529 0.4043
vn 0.1786 -0.2522 0.9510
vn 0.1903 -0.1653 0.9677
vn 0.7580 -0.6467 0.0848
vn 0.3214 -0.2504 -0.9133
vn -0.8993 -0.3330 0.2835
vn -0.3777 -0.6486 0.6608
vn 0.3014 -0.9192 -0.2535
vn 0.2248 -0.8860 -0.4054
vn -0.2681 -0.9488 0.1669
vn -0.4499 -0.8106 0.3748
vn -0.0685 -0.2695 0.9605
vn -0.4480 0.0710 0.8912
vn -0.8895 0.4558 -0.0318
vn 0.4650 0.5761 -0.6723
vn 0.9269 0.3408 -0.1572
vn 0.6285 0.3202 0.7088
vn -0.3284 0.9032 -0.2765
vn 0.0807 0.9894 -0.1204
vn 0.2325 0.9591 0.1615
vn 0.1870 0.8129 0.5516
vn 0.9034 0.3878 -0.1828
vn -0.7661 0.6426 0.0074
vn -0.2743 0.6535 0.7055
vn 0.6189 0.1506 0.7709
vn 0.9765 -0.0420 -0.2113
vn 0.2625 0.3514 -0.8987
vn -0.3066 0.5000 -0.8099
vn -0.7774 -0.0320 0.6282
vn 0.1178 -0.2860 0.9510
vn 0.3546 -0.6697 0.6525
vn 0.8729 -0.4808 0.0824
vn 0.8802 -0.4673 0.0824
vn 0.5079 -0.8389 -0.1958
vn 0.3357 -0.1912 -0.9223
vn 0.3430 -0.1777 -0.9224
vn -0.1700 -0.4734 -0.8643
vn -0.6179 0.2194 -0.7550
vn -0.9235 0.1119 -0.3668
vn -0.8338 -0.4533 0.3152
vn -0.0023 -0.9954 0.0957
vn 0.2259 -0.9622 -0.1518
vn -0.9137 -0.2926 -0.2819
vn -0.6636 -0.5910 -0.4586
vn -0.2223 -0.5585 -0.7992
vn -0.7836 -0.2897 -0.5496
vn -0.0314 -0.9993 -0.0209
vn -0.2863 -0.9008 0.3265
vn -0.4032 0.1327 0.9055
vn -0.0357 0.7983 0.6012
vn -0.3789 0.9133 0.1492
vn 0.4011 0.6920 0.6003
vn 0.6770 0.6910 -0.2533
vn 0.4267 0.8038 -0.4145
vn -0.6472 0.7612 0.0401
vn 0.6039 -0.0884 0.7922
vn 0.7602 -0.1875 0.6220
vn 0.9603 0.1021 -0.2596
vn 0.8048 -0.3075 -0.5078
vn -0.0752 0.3893 -0.9180
vn -0.8871 0.1004 0.4506
vn 0.0486 -0.2871 0.9567
vn 0.5446 -0.8372 -0.0505
vn 0.1017 -0.2362 -0.9664
vn -0.6377 0.4094 -0.6525
vn -0.9233 -0.3354 0.1873
vn -0.3309 -0.6011 -0.7274
usemtl White
s off
f 75//103 81//103 77//103
f 75//104 77//104 79//104
f 75//105 79//105 83//105
f 85//106 84//106 80//106
f 78//107 85//107 80//107
f 86//108 78//108 80//108
f 80//109 84//109 83//109
f 83//110 86//110 80//110
f 83//111 79//111 86//111
f 77//112 86//112 79//112
f 76//113 78//113 86//113
f 77//114 76//114 86//114
f 76//115 85//115 78//115
f 76//116 82//116 85//116
f 85//117 82//117 84//117
f 84//118 75//118 83//118
f 81//119 76//119 77//119
f 81//120 82//120 76//120
f 81//121 84//121 82//121
f 81//122 75//122 84//122
f 87//123 93//123 97//123
f 87//124 97//124 88//124
f 88//125 97//125 91//125
f 88//126 91//126 103//126
f 98//127 103//127 99//127
f 89//128 104//128 92//128
f 90//129 89//129 105//129
f 91//130 90//130 105//130
f 99//131 106//131 104//131
f 104//132 106//132 92//132
f 106//133 105//133 92//133
f 106//134 91//134 105//134
f 105//135 89//135 92//135
f 99//136 103//136 106//136
f 103//137 91//137 106//137
f 102//138 90//138 91//138
f 101//139 89//139 90//139
f 100//140 104//140 89//140
f 100//141 99//141 104//141
f 98//142 88//142 103//142
f 91//143 97//143 102//143
f 97//144 96//144 102//144
f 102//145 101//145 90//145
f 102//146 96//146 101//146
f 96//147 94//147 101//147
f 101//148 100//148 89//148
f 101//149 94//149 100//149
f 94//150 95//150 100//150
f 100//151 95//151 99//151
f 95//152 98//152 99//152
f 87//153 88//153 98//153
f 97//154 93//154 96//154
f 93//155 94//155 96//155
f 95//156 87//156 98//156
f 95//157 93//157 87//157
f 93//158 95//158 94//158
f 113//159 107//159 110//159
f 107//160 114//160 108//160
f 107//161 108//161 109//161
f 109//162 111//162 116//162
f 116//163 111//163 112//163
f 118//164 116//164 112//164
f 112//165 111//165 119//165
f 119//166 117//166 112//166
f 117//167 118//167 112//167
f 110//168 116//168 118//168
f 108//169 119//169 111//169
f 108//170 115//170 119//170
f 115//171 117//171 119//171
f 115//172 114//172 117//172
f 117//173 113//173 118//173
f 110//174 109//174 116//174
f 111//175 109//175 108//175
f 108//176 114//176 115//176
f 114//177 113//177 117//177
f 113//178 110//178 118//178
f 107//179 109//179 110//179
f 107//180 113//180 114//180
