# Blender v2.77 (sub 0) OBJ File: 'sun.blend'
# www.blender.org
mtllib sun.mtl
o Plane.008_Plane.001
v 0.760140 0.901561 -0.000000
v 0.766206 0.766206 0.040000
v 0.966206 0.966206 0.040000
v 0.901561 0.760140 -0.000000
vn -0.0000 0.0000 1.0000
usemtl sun-yellow
s off
f 1//1 2//1 4//1 3//1
l 2 3
o Plane.007_Plane.001
v 1.175000 0.100000 -0.000000
v 1.083579 -0.000000 0.040000
v 1.366421 -0.000000 0.040000
v 1.175000 -0.100000 -0.000000
vn 0.0000 0.0000 1.0000
usemtl sun-yellow
s off
f 5//2 6//2 8//2 7//2
l 6 7
o Plane.006_Plane.001
v 0.901561 -0.760140 0.000000
v 0.766206 -0.766206 0.040000
v 0.966206 -0.966206 0.040000
v 0.760140 -0.901561 0.000000
vn -0.0000 0.0000 1.0000
usemtl sun-yellow
s off
f 9//3 10//3 12//3 11//3
l 10 11
o Plane.005_Plane.001
v 0.100000 -1.175000 0.000000
v 0.000000 -1.083579 0.040000
v 0.000000 -1.366421 0.040000
v -0.100000 -1.175000 0.000000
vn -0.0000 0.0000 1.0000
usemtl sun-yellow
s off
f 13//4 14//4 16//4 15//4
l 14 15
o Plane.004_Plane.001
v -0.760140 -0.901561 0.000000
v -0.766206 -0.766206 0.040000
v -0.966206 -0.966206 0.040000
v -0.901561 -0.760140 0.000000
vn 0.0000 0.0000 1.0000
usemtl sun-yellow
s off
f 17//5 18//5 20//5 19//5
l 18 19
o Plane.003_Plane.001
v -1.175000 -0.100000 0.000000
v -1.083579 -0.000000 0.040000
v -1.366421 -0.000000 0.040000
v -1.175000 0.100000 -0.000000
vn 0.0000 0.0000 1.0000
usemtl sun-yellow
s off
f 21//6 22//6 24//6 23//6
l 22 23
o Plane.002_Plane.001
v -0.901561 0.760140 -0.000000
v -0.766206 0.766206 0.040000
v -0.966206 0.966206 0.040000
v -0.760140 0.901561 -0.000000
vn -0.0000 0.0000 1.0000
usemtl sun-yellow
s off
f 25//7 26//7 28//7 27//7
l 26 27
o Plane.001
v -0.100000 1.175000 -0.000000
v -0.000000 1.083579 0.040000
v -0.000000 1.366421 0.040000
v 0.100000 1.175000 -0.000000
vn -0.0000 0.0000 1.0000
usemtl sun-yellow
s off
f 29//8 30//8 32//8 31//8
l 30 31
o Icosphere
v -0.235241 0.724008 -0.700735
v 0.003618 -0.892291 0.523793
v -0.847502 -0.279175 0.523790
v -0.527408 0.719749 0.523790
v 0.521546 0.724008 0.523792
v 0.849739 -0.272290 0.523791
v 0.088470 0.272289 0.994276
v -0.088470 -0.272289 -0.994276
v -0.003618 -0.892291 -0.523793
v 0.847502 -0.279175 -0.523790
v 0.418908 -0.000000 -0.957649
v -0.525730 -0.000000 -0.850652
v -0.849738 -0.272290 -0.523790
v -0.688189 0.499997 -0.525736
v 0.527408 0.719749 -0.523791
v 0.951058 -0.309013 0.000000
v 0.951058 0.309013 -0.000000
v 0.000000 -1.000000 0.000000
v 0.587786 -0.809017 0.000000
v -0.951058 -0.309013 0.000000
v -0.587786 -0.809017 0.000000
v -0.587786 0.809017 -0.000000
v -0.951058 0.309013 -0.000000
v 0.587786 0.809017 -0.000000
v 0.000000 1.000000 -0.000000
v 0.162456 -0.499995 0.850654
v 0.525730 0.000000 0.850652
v -0.418907 0.000000 0.957649
vn -0.1523 0.2586 -0.9539
vn -0.0764 0.2714 -0.9594
vn -0.5212 0.7755 -0.3563
vn 0.7943 -0.5771 -0.1899
vn -0.3034 -0.9337 -0.1899
vn -0.9818 0.0000 -0.1899
vn -0.2983 0.9180 -0.2614
vn 0.7943 0.5771 -0.1899
vn 0.4886 -0.6667 0.5628
vn -0.3933 -0.5459 0.7398
vn -0.7639 0.2448 0.5971
vn -0.0029 0.7227 0.6912
vn 0.7851 0.2586 0.5628
vn 0.4865 0.3618 0.7952
vn -0.3057 0.4573 0.8351
vn 0.0258 -0.1804 0.9833
vn -0.3114 -0.5307 0.7883
vn 0.2178 -0.1582 0.9631
vn 0.4953 -0.3598 0.7907
vn 0.8389 0.2763 0.4689
vn 0.7937 0.5766 0.1940
vn -0.0036 0.8832 0.4689
vn -0.3031 0.9330 0.1940
vn -0.8411 0.2695 0.4689
vn -0.9810 0.0000 0.1940
vn -0.5162 -0.7166 0.4689
vn -0.3031 -0.9330 0.1939
vn 0.5220 -0.7124 0.4689
vn 0.7937 -0.5766 0.1939
vn 0.3034 0.9337 0.1899
vn 0.3031 0.9330 -0.1940
vn 0.0962 0.9147 -0.3925
vn -0.7943 0.5771 0.1899
vn -0.7947 0.5773 -0.1876
vn -0.9041 0.1882 -0.3837
vn -0.7943 -0.5771 0.1899
vn -0.7937 -0.5766 -0.1939
vn -0.5220 -0.7124 -0.4689
vn 0.3034 -0.9337 0.1899
vn 0.3031 -0.9330 -0.1939
vn 0.5162 -0.7166 -0.4689
vn 0.9818 -0.0000 0.1899
vn 0.9810 0.0000 -0.1940
vn 0.8411 0.2695 -0.4689
vn 0.2004 0.4834 -0.8521
vn -0.4857 0.3598 -0.7966
vn -0.7640 0.1582 -0.6255
vn -0.4889 -0.3678 -0.7910
vn -0.4272 -0.5829 -0.6912
vn 0.7639 0.2448 -0.5971
vn 0.3439 -0.5373 -0.7701
vn 0.3933 -0.5459 -0.7398
usemtl sun-yellow
s off
f 40//9 44//9 33//9
f 40//10 33//10 43//10
f 33//11 46//11 54//11
f 42//12 48//12 51//12
f 41//13 50//13 53//13
f 45//14 52//14 55//14
f 33//15 54//15 57//15
f 47//16 56//16 49//16
f 34//17 38//17 58//17
f 35//18 34//18 60//18
f 36//19 35//19 60//19
f 37//20 36//20 39//20
f 38//21 37//21 59//21
f 59//22 37//22 39//22
f 39//23 36//23 60//23
f 60//24 58//24 39//24
f 60//25 34//25 58//25
f 58//26 59//26 39//26
f 58//27 38//27 59//27
f 49//28 37//28 38//28
f 49//29 56//29 37//29
f 57//30 36//30 37//30
f 57//31 54//31 36//31
f 55//32 35//32 36//32
f 55//33 52//33 35//33
f 53//34 34//34 35//34
f 53//35 50//35 34//35
f 51//36 38//36 34//36
f 51//37 48//37 38//37
f 56//38 57//38 37//38
f 56//39 47//39 57//39
f 47//40 33//40 57//40
f 54//41 55//41 36//41
f 54//42 46//42 55//42
f 46//43 45//43 55//43
f 52//44 53//44 35//44
f 52//45 45//45 53//45
f 45//46 41//46 53//46
f 50//47 51//47 34//47
f 50//48 41//48 51//48
f 41//49 42//49 51//49
f 48//50 49//50 38//50
f 48//51 42//51 49//51
f 42//52 47//52 49//52
f 43//53 33//53 47//53
f 33//54 44//54 46//54
f 44//55 45//55 46//55
f 44//56 40//56 45//56
f 40//57 41//57 45//57
f 42//58 43//58 47//58
f 40//59 43//59 41//59
f 43//60 42//60 41//60
