# Blender v2.77 (sub 0) OBJ File: 'surroundojo.blend'
# www.blender.org
mtllib surroundojo.mtl
o Cylinder.001
v 0.000001 0.311770 -10.000000
v 0.000001 -0.271837 -10.000000
v -1.950902 0.311770 -9.807853
v -1.950902 -0.271837 -9.807853
v -3.826834 0.311770 -9.238795
v -3.826834 -0.271837 -9.238795
v -5.555701 0.311770 -8.314697
v -5.555701 -0.271837 -8.314697
v -7.071067 0.311770 -7.071068
v -7.071067 -0.271837 -7.071068
v -8.314695 0.311770 -5.555703
v -8.314695 -0.271837 -5.555703
v -9.238795 0.311770 -3.826835
v -9.238795 -0.271837 -3.826835
v -9.807853 0.311770 -1.950904
v -9.807853 -0.271837 -1.950904
v -10.000000 0.311770 -0.000002
v -10.000000 -0.271837 -0.000002
v -9.807853 0.311771 1.950901
v -9.807853 -0.271837 1.950901
v -9.238795 0.311771 3.826832
v -9.238795 -0.271837 3.826832
v -8.314697 0.311771 5.555701
v -8.314697 -0.271837 5.555701
v -7.071068 0.311771 7.071067
v -7.071068 -0.271836 7.071067
v -5.555703 0.311772 8.314695
v -5.555703 -0.271836 8.314695
v -3.826834 0.311772 9.238796
v -3.826834 -0.271836 9.238796
v -1.950902 0.311772 9.807853
v -1.950902 -0.271836 9.807853
v 0.000002 0.311772 10.000000
v 0.000002 -0.271835 10.000000
v 1.950906 0.311772 9.807852
v 1.950906 -0.271835 9.807852
v 3.826838 0.311772 9.238793
v 3.826838 -0.271835 9.238793
v 5.555706 0.311773 8.314694
v 5.555706 -0.271835 8.314694
v 7.071072 0.311773 7.071064
v 7.071072 -0.271835 7.071064
v 8.314699 0.311773 5.555697
v 8.314699 -0.271835 5.555697
v 9.238798 0.311772 3.826827
v 9.238798 -0.271835 3.826827
v 9.807855 0.311772 1.950895
v 9.807855 -0.271835 1.950895
v 10.000000 0.311772 -0.000009
v 10.000000 -0.271835 -0.000009
v 9.807851 0.311772 -1.950913
v 9.807851 -0.271836 -1.950913
v 9.238791 0.311772 -3.826844
v 9.238791 -0.271836 -3.826844
v 8.314691 0.311772 -5.555712
v 8.314691 -0.271836 -5.555712
v 7.071059 0.311771 -7.071076
v 7.071059 -0.271836 -7.071076
v 5.555692 0.311771 -8.314703
v 5.555692 -0.271837 -8.314703
v 3.826821 0.311771 -9.238801
v 3.826821 -0.271837 -9.238801
v 1.950889 0.311771 -9.807856
v 1.950889 -0.271837 -9.807856
vt 0.0000 0.0000
vt 0.0000 0.0000
vt 0.0000 0.0000
vt 0.0000 0.0000
vt 0.0000 0.0000
vt 0.0000 0.0000
vt 0.0000 0.0000
vt 0.0000 0.0000
vt 0.0000 0.0000
vt 0.0000 0.0000
vt 0.0000 0.0000
vt 0.0000 0.0000
vt 0.0000 0.0000
vt 0.0000 0.0000
vt 0.0000 0.0000
vt 0.0000 0.0000
vt 0.0000 0.0000
vt 0.0000 0.0000
vt 0.0000 0.0000
vt 0.0000 0.0000
vt 0.0000 0.0000
vt 0.0000 0.0000
vt 0.0000 0.0000
vt 0.0000 0.0000
vt 0.0000 0.0000
vt 0.0000 0.0000
vt 0.0000 0.0000
vt 0.0000 0.0000
vt 0.0000 0.0000
vt 0.0000 0.0000
vt 0.0000 0.0000
vt 0.0000 0.0000
vt 0.5000 1.0000
vt 0.5975 0.9904
vt 0.6913 0.9619
vt 0.7778 0.9157
vt 0.8536 0.8536
vt 0.9157 0.7778
vt 0.9619 0.6913
vt 0.9904 0.5975
vt 1.0000 0.5000
vt 0.9904 0.4025
vt 0.9619 0.3087
vt 0.9157 0.2222
vt 0.8536 0.1464
vt 0.7778 0.0843
vt 0.6913 0.0381
vt 0.5975 0.0096
vt 0.5000 0.0000
vt 0.4025 0.0096
vt 0.3087 0.0381
vt 0.2222 0.0843
vt 0.1464 0.1464
vt 0.0843 0.2222
vt 0.0381 0.3087
vt 0.0096 0.4025
vt 0.0000 0.5000
vt 0.0096 0.5975
vt 0.0381 0.6913
vt 0.0843 0.7778
vt 0.1464 0.8536
vt 0.2222 0.9157
vt 0.3087 0.9619
vt 0.4025 0.9904
vt 0.0000 0.0000
vt 0.0000 0.0000
vt 0.0000 0.0000
vt 0.0000 0.0000
vt 0.0000 0.0000
vt 0.0000 0.0000
vt 0.0000 0.0000
vt 0.0000 0.0000
vt 0.0000 0.0000
vt 0.0000 0.0000
vt 0.0000 0.0000
vt 0.0000 0.0000
vt 0.0000 0.0000
vt 0.0000 0.0000
vt 0.0000 0.0000
vt 0.0000 0.0000
vt 0.0000 0.0000
vt 0.0000 0.0000
vt 0.0000 0.0000
vt 0.0000 0.0000
vt 0.0000 0.0000
vt 0.0000 0.0000
vt 0.0000 0.0000
vt 0.0000 0.0000
vt 0.0000 0.0000
vt 0.0000 0.0000
vt 0.0000 0.0000
vt 0.0000 0.0000
vt 0.0000 0.0000
vt 0.0000 0.0000
vt 0.0000 0.0000
vt 0.0000 0.0000
vn 0.0000 -1.0000 0.0000
vn -0.0000 1.0000 -0.0000
vn -0.0980 0.0000 -0.9952
vn -0.2903 0.0000 -0.9569
vn -0.4714 0.0000 -0.8819
vn -0.6344 0.0000 -0.7730
vn -0.7730 0.0000 -0.6344
vn -0.8819 0.0000 -0.4714
vn -0.9569 0.0000 -0.2903
vn -0.9952 -0.0000 -0.0980
vn -0.9952 0.0000 0.0980
vn -0.9569 0.0000 0.2903
vn -0.8819 0.0000 0.4714
vn -0.7730 0.0000 0.6344
vn -0.6344 0.0000 0.7730
vn -0.4714 0.0000 0.8819
vn -0.2903 0.0000 0.9569
vn -0.0980 0.0000 0.9952
vn 0.0980 0.0000 0.9952
vn 0.2903 0.0000 0.9569
vn 0.4714 0.0000 0.8819
vn 0.6344 0.0000 0.7730
vn 0.7730 0.0000 0.6344
vn 0.8819 0.0000 0.4714
vn 0.9569 0.0000 0.2903
vn 0.9952 0.0000 0.0980
vn 0.9952 0.0000 -0.0980
vn 0.9569 0.0000 -0.2903
vn 0.8819 0.0000 -0.4714
vn 0.7730 0.0000 -0.6344
vn 0.6344 0.0000 -0.7730
vn 0.4714 0.0000 -0.8819
vn 0.0980 0.0000 -0.9952
vn 0.2903 0.0000 -0.9569
usemtl None
s off
f 4/1/1 2/2/1 64/3/1 62/4/1 60/5/1 58/6/1 56/7/1 54/8/1 52/9/1 50/10/1 48/11/1 46/12/1 44/13/1 42/14/1 40/15/1 38/16/1 36/17/1 34/18/1 32/19/1 30/20/1 28/21/1 26/22/1 24/23/1 22/24/1 20/25/1 18/26/1 16/27/1 14/28/1 12/29/1 10/30/1 8/31/1 6/32/1
f 1/33/2 3/34/2 5/35/2 7/36/2 9/37/2 11/38/2 13/39/2 15/40/2 17/41/2 19/42/2 21/43/2 23/44/2 25/45/2 27/46/2 29/47/2 31/48/2 33/49/2 35/50/2 37/51/2 39/52/2 41/53/2 43/54/2 45/55/2 47/56/2 49/57/2 51/58/2 53/59/2 55/60/2 57/61/2 59/62/2 61/63/2 63/64/2
usemtl None_NONE
f 1/65/3 2/2/3 4/1/3 3/66/3
f 3/66/4 4/1/4 6/32/4 5/67/4
f 5/67/5 6/32/5 8/31/5 7/68/5
f 7/68/6 8/31/6 10/30/6 9/69/6
f 9/69/7 10/30/7 12/29/7 11/70/7
f 11/70/8 12/29/8 14/28/8 13/71/8
f 13/71/9 14/28/9 16/27/9 15/72/9
f 15/72/10 16/27/10 18/26/10 17/73/10
f 17/73/11 18/26/11 20/25/11 19/74/11
f 19/74/12 20/25/12 22/24/12 21/75/12
f 21/75/13 22/24/13 24/23/13 23/76/13
f 23/76/14 24/23/14 26/22/14 25/77/14
f 25/77/15 26/22/15 28/21/15 27/78/15
f 27/78/16 28/21/16 30/20/16 29/79/16
f 29/79/17 30/20/17 32/19/17 31/80/17
f 31/80/18 32/19/18 34/18/18 33/81/18
f 33/81/19 34/18/19 36/17/19 35/82/19
f 35/82/20 36/17/20 38/16/20 37/83/20
f 37/83/21 38/16/21 40/15/21 39/84/21
f 39/84/22 40/15/22 42/14/22 41/85/22
f 41/85/23 42/14/23 44/13/23 43/86/23
f 43/86/24 44/13/24 46/12/24 45/87/24
f 45/87/25 46/12/25 48/11/25 47/88/25
f 47/88/26 48/11/26 50/10/26 49/89/26
f 49/89/27 50/10/27 52/9/27 51/90/27
f 51/90/28 52/9/28 54/8/28 53/91/28
f 53/91/29 54/8/29 56/7/29 55/92/29
f 55/92/30 56/7/30 58/6/30 57/93/30
f 57/93/31 58/6/31 60/5/31 59/94/31
f 59/94/32 60/5/32 62/4/32 61/95/32
f 63/96/33 64/3/33 2/2/33 1/65/33
f 61/95/34 62/4/34 64/3/34 63/96/34
o Cylinder
v 0.000000 -200.000000 -200.000000
v 0.000000 200.000000 -200.000000
v 39.018066 -200.000000 -196.157043
v 39.018066 200.000000 -196.157043
v 76.536690 -200.000000 -184.775894
v 76.536690 200.000000 -184.775894
v 111.114052 -200.000000 -166.293915
v 111.114052 200.000000 -166.293915
v 141.421356 -200.000000 -141.421356
v 141.421356 200.000000 -141.421356
v 166.293930 -200.000000 -111.114037
v 166.293930 200.000000 -111.114037
v 184.775894 -200.000000 -76.536682
v 184.775894 200.000000 -76.536682
v 196.157043 -200.000000 -39.018070
v 196.157043 200.000000 -39.018070
v 200.000000 -200.000000 -0.000015
v 200.000000 200.000000 -0.000015
v 196.157059 -200.000000 39.018040
v 196.157059 200.000000 39.018040
v 184.775909 -200.000000 76.536652
v 184.775909 200.000000 76.536652
v 166.293930 -200.000000 111.114037
v 166.293930 200.000000 111.114037
v 141.421356 -200.000000 141.421356
v 141.421356 200.000000 141.421356
v 111.114037 -200.000000 166.293930
v 111.114037 200.000000 166.293930
v 76.536652 -200.000000 184.775925
v 76.536652 200.000000 184.775925
v 39.018017 -200.000000 196.157059
v 39.018017 200.000000 196.157059
v -0.000065 -200.000000 200.000000
v -0.000065 200.000000 200.000000
v -39.018147 -200.000000 196.157043
v -39.018147 200.000000 196.157043
v -76.536774 -200.000000 184.775864
v -76.536774 200.000000 184.775864
v -111.114143 -200.000000 166.293854
v -111.114143 200.000000 166.293854
v -141.421448 -200.000000 141.421265
v -141.421448 200.000000 141.421265
v -166.294006 -200.000000 111.113930
v -166.294006 200.000000 111.113930
v -184.775970 -200.000000 76.536537
v -184.775970 200.000000 76.536537
v -196.157089 -200.000000 39.017891
v -196.157089 200.000000 39.017891
v -200.000000 -200.000000 -0.000193
v -200.000000 200.000000 -0.000193
v -196.157013 -200.000000 -39.018269
v -196.157013 200.000000 -39.018269
v -184.775818 -200.000000 -76.536896
v -184.775818 200.000000 -76.536896
v -166.293793 -200.000000 -111.114250
v -166.293793 200.000000 -111.114250
v -141.421173 -200.000000 -141.421539
v -141.421173 200.000000 -141.421539
v -111.113823 -200.000000 -166.294067
v -111.113823 200.000000 -166.294067
v -76.536415 -200.000000 -184.776016
v -76.536415 200.000000 -184.776016
v -39.017765 -200.000000 -196.157104
v -39.017765 200.000000 -196.157104
vt 0.0000 0.0000
vt 1.0000 0.0000
vt 1.0000 1.0000
vt 0.0000 1.0000
vt 0.0000 0.0000
vt 1.0000 0.0000
vt 1.0000 1.0000
vt 0.0000 1.0000
vt 0.0000 0.0000
vt 1.0000 0.0000
vt 1.0000 1.0000
vt 0.0000 1.0000
vt 0.0000 0.0000
vt 1.0000 0.0000
vt 1.0000 1.0000
vt 0.0000 1.0000
vt 0.0000 0.0000
vt 1.0000 0.0000
vt 1.0000 1.0000
vt 0.0000 1.0000
vt 0.0000 0.0000
vt 1.0000 0.0000
vt 1.0000 1.0000
vt 0.0000 1.0000
vt 0.0000 0.0000
vt 1.0000 0.0000
vt 1.0000 1.0000
vt 0.0000 1.0000
vt 0.0000 0.0000
vt 1.0000 0.0000
vt 1.0000 1.0000
vt 0.0000 1.0000
vt 0.0000 0.0000
vt 1.0000 0.0000
vt 1.0000 1.0000
vt 0.0000 1.0000
vt 0.0000 0.0000
vt 1.0000 0.0000
vt 1.0000 1.0000
vt 0.0000 1.0000
vt 0.0000 0.0000
vt 1.0000 0.0000
vt 1.0000 1.0000
vt 0.0000 1.0000
vt 0.0000 0.0000
vt 1.0000 0.0000
vt 1.0000 1.0000
vt 0.0000 1.0000
vt 0.0000 0.0000
vt 1.0000 0.0000
vt 1.0000 1.0000
vt 0.0000 1.0000
vt 0.0000 0.0000
vt 1.0000 0.0000
vt 1.0000 1.0000
vt 0.0000 1.0000
vt 0.0000 0.0000
vt 1.0000 0.0000
vt 1.0000 1.0000
vt 0.0000 1.0000
vt 0.0000 0.0000
vt 1.0000 0.0000
vt 1.0000 1.0000
vt 0.0000 1.0000
vt 0.0000 0.0000
vt 1.0000 0.0000
vt 1.0000 1.0000
vt 0.0000 1.0000
vt 0.0000 0.0000
vt 1.0000 0.0000
vt 1.0000 1.0000
vt 0.0000 1.0000
vt 0.0000 0.0000
vt 1.0000 0.0000
vt 1.0000 1.0000
vt 0.0000 1.0000
vt 0.0000 0.0000
vt 1.0000 0.0000
vt 1.0000 1.0000
vt 0.0000 1.0000
vt 0.0000 0.0000
vt 1.0000 0.0000
vt 1.0000 1.0000
vt 0.0000 1.0000
vt 0.0000 0.0000
vt 1.0000 0.0000
vt 1.0000 1.0000
vt 0.0000 1.0000
vt 0.0000 0.0000
vt 1.0000 0.0000
vt 1.0000 1.0000
vt 0.0000 1.0000
vt 0.0000 0.0000
vt 1.0000 0.0000
vt 1.0000 1.0000
vt 0.0000 1.0000
vt 0.0000 0.0000
vt 1.0000 0.0000
vt 1.0000 1.0000
vt 0.0000 1.0000
vt 0.0000 0.0000
vt 1.0000 0.0000
vt 1.0000 1.0000
vt 0.0000 1.0000
vt 0.0000 0.0000
vt 1.0000 0.0000
vt 1.0000 1.0000
vt 0.0000 1.0000
vt 0.0000 0.0000
vt 1.0000 0.0000
vt 1.0000 1.0000
vt 0.0000 1.0000
vt 0.0000 0.0000
vt 1.0000 0.0000
vt 1.0000 1.0000
vt 0.0000 1.0000
vt 0.0000 0.0000
vt 1.0000 0.0000
vt 1.0000 1.0000
vt 0.0000 1.0000
vt 0.0000 0.0000
vt 1.0000 0.0000
vt 1.0000 1.0000
vt 0.0000 1.0000
vt 0.5000 1.0000
vt 0.5975 0.9904
vt 0.6913 0.9619
vt 0.7778 0.9157
vt 0.8536 0.8536
vt 0.9157 0.7778
vt 0.9619 0.6913
vt 0.9904 0.5975
vt 1.0000 0.5000
vt 0.9904 0.4025
vt 0.9619 0.3087
vt 0.9157 0.2222
vt 0.8536 0.1464
vt 0.7778 0.0843
vt 0.6913 0.0381
vt 0.5975 0.0096
vt 0.5000 0.0000
vt 0.4025 0.0096
vt 0.3087 0.0381
vt 0.2222 0.0843
vt 0.1464 0.1464
vt 0.0843 0.2222
vt 0.0381 0.3087
vt 0.0096 0.4025
vt 0.0000 0.5000
vt 0.0096 0.5975
vt 0.0381 0.6913
vt 0.0843 0.7778
vt 0.1464 0.8536
vt 0.2222 0.9157
vt 0.3087 0.9619
vt 0.4025 0.9904
vt 0.0000 0.0000
vt 1.0000 0.0000
vt 1.0000 1.0000
vt 0.0000 1.0000
vt 0.5000 1.0000
vt 0.5975 0.9904
vt 0.6913 0.9619
vt 0.7778 0.9157
vt 0.8536 0.8536
vt 0.9157 0.7778
vt 0.9619 0.6913
vt 0.9904 0.5975
vt 1.0000 0.5000
vt 0.9904 0.4025
vt 0.9619 0.3087
vt 0.9157 0.2222
vt 0.8536 0.1464
vt 0.7778 0.0843
vt 0.6913 0.0381
vt 0.5975 0.0096
vt 0.5000 0.0000
vt 0.4025 0.0096
vt 0.3087 0.0381
vt 0.2222 0.0843
vt 0.1464 0.1464
vt 0.0843 0.2222
vt 0.0381 0.3087
vt 0.0096 0.4025
vt 0.0000 0.5000
vt 0.0096 0.5975
vt 0.0381 0.6913
vt 0.0843 0.7778
vt 0.1464 0.8536
vt 0.2222 0.9157
vt 0.3087 0.9619
vt 0.4025 0.9904
vn 0.2903 0.0000 -0.9569
vn 0.9569 0.0000 -0.2903
vn 0.9569 0.0000 0.2903
vn 0.2903 0.0000 0.9569
vn -0.2903 0.0000 0.9569
vn -0.9569 0.0000 0.2903
vn -0.9569 0.0000 -0.2903
vn -0.2903 0.0000 -0.9569
vn 0.0980 0.0000 -0.9952
vn 0.4714 0.0000 -0.8819
vn 0.6344 0.0000 -0.7730
vn 0.7730 0.0000 -0.6344
vn 0.8819 0.0000 -0.4714
vn 0.9952 0.0000 -0.0980
vn 0.9952 0.0000 0.0980
vn 0.8819 0.0000 0.4714
vn 0.7730 0.0000 0.6344
vn 0.6344 0.0000 0.7730
vn 0.4714 0.0000 0.8819
vn 0.0980 0.0000 0.9952
vn -0.0980 0.0000 0.9952
vn -0.4714 0.0000 0.8819
vn -0.6344 0.0000 0.7730
vn -0.7730 0.0000 0.6344
vn -0.8819 0.0000 0.4714
vn -0.9952 0.0000 0.0980
vn -0.9952 0.0000 -0.0980
vn -0.8819 0.0000 -0.4714
vn -0.7730 0.0000 -0.6344
vn -0.6344 0.0000 -0.7730
vn -0.4714 0.0000 -0.8819
vn 0.0000 1.0000 -0.0000
vn -0.0980 0.0000 -0.9952
vn 0.0000 -1.0000 0.0000
usemtl None
s off
f 67/97/35 68/98/35 70/99/35 69/100/35
f 77/101/36 78/102/36 80/103/36 79/104/36
f 83/105/37 84/106/37 86/107/37 85/108/37
f 93/109/38 94/110/38 96/111/38 95/112/38
f 99/113/39 100/114/39 102/115/39 101/116/39
f 109/117/40 110/118/40 112/119/40 111/120/40
f 115/121/41 116/122/41 118/123/41 117/124/41
f 125/125/42 126/126/42 128/127/42 127/128/42
usemtl None_ricepaper_(1).png
f 65/129/43 66/130/43 68/131/43 67/132/43
f 69/133/44 70/134/44 72/135/44 71/136/44
f 71/137/45 72/138/45 74/139/45 73/140/45
f 73/141/46 74/142/46 76/143/46 75/144/46
f 75/145/47 76/146/47 78/147/47 77/148/47
f 79/149/48 80/150/48 82/151/48 81/152/48
f 81/153/49 82/154/49 84/155/49 83/156/49
f 85/157/50 86/158/50 88/159/50 87/160/50
f 87/161/51 88/162/51 90/163/51 89/164/51
f 89/165/52 90/166/52 92/167/52 91/168/52
f 91/169/53 92/170/53 94/171/53 93/172/53
f 95/173/54 96/174/54 98/175/54 97/176/54
f 97/177/55 98/178/55 100/179/55 99/180/55
f 101/181/56 102/182/56 104/183/56 103/184/56
f 103/185/57 104/186/57 106/187/57 105/188/57
f 105/189/58 106/190/58 108/191/58 107/192/58
f 107/193/59 108/194/59 110/195/59 109/196/59
f 111/197/60 112/198/60 114/199/60 113/200/60
f 113/201/61 114/202/61 116/203/61 115/204/61
f 117/205/62 118/206/62 120/207/62 119/208/62
f 119/209/63 120/210/63 122/211/63 121/212/63
f 121/213/64 122/214/64 124/215/64 123/216/64
f 123/217/65 124/218/65 126/219/65 125/220/65
f 68/221/66 66/222/66 128/223/66 126/224/66 124/225/66 122/226/66 120/227/66 118/228/66 116/229/66 114/230/66 112/231/66 110/232/66 108/233/66 106/234/66 104/235/66 102/236/66 100/237/66 98/238/66 96/239/66 94/240/66 92/241/66 90/242/66 88/243/66 86/244/66 84/245/66 82/246/66 80/247/66 78/248/66 76/249/66 74/250/66 72/251/66 70/252/66
f 127/253/67 128/254/67 66/255/67 65/256/67
f 65/257/68 67/258/68 69/259/68 71/260/68 73/261/68 75/262/68 77/263/68 79/264/68 81/265/68 83/266/68 85/267/68 87/268/68 89/269/68 91/270/68 93/271/68 95/272/68 97/273/68 99/274/68 101/275/68 103/276/68 105/277/68 107/278/68 109/279/68 111/280/68 113/281/68 115/282/68 117/283/68 119/284/68 121/285/68 123/286/68 125/287/68 127/288/68
