# Blender v2.77 (sub 0) OBJ File: 'tree_low-poly-double-trunk.blend'
# www.blender.org
mtllib tree_low-poly-double-trunk.mtl
o Cylinder.002_Cylinder.007
v -1.266898 3.719366 0.718835
v -2.859595 4.221647 0.262385
v -2.134497 4.642900 -0.912766
v -1.783143 3.132198 0.014319
v -2.293652 3.719365 -0.694366
v -1.310397 4.755987 0.805848
v -2.108747 4.288733 1.016419
v -1.468614 4.037680 -0.953702
v -0.706694 4.242495 -0.233746
v -1.806978 5.317991 -0.059035
v 2.334167 4.082671 1.505931
v 0.827109 3.457797 1.371695
v 1.253137 3.783250 -1.601191
v 2.818616 3.783255 -0.473477
v 1.529751 5.183480 1.872528
v 2.822730 5.710091 0.540842
v 1.422516 6.575461 -0.460811
v 2.030296 2.985251 0.040015
v -0.303148 3.783254 0.540842
v 1.097067 2.917882 -0.460812
v -0.036896 3.401392 -0.412877
v 3.179837 4.845237 0.040015
v 0.185416 5.410672 1.505932
v -0.660252 4.648104 0.040015
v 1.850319 5.050365 -1.777439
v 0.329791 5.321444 -1.541448
v 2.556478 6.091952 -0.412878
v 1.021691 6.508096 0.772800
v -0.106070 5.993663 -0.528773
v 0.001957 0.001226 -0.202012
v -0.002538 3.155054 -0.171556
v 0.176905 0.001476 -0.101006
v 0.146034 3.155266 -0.085778
v 0.176905 0.001476 0.101006
v 0.146034 3.155266 0.085778
v 0.001957 0.001226 0.202012
v -0.002538 3.155054 0.171556
v -0.172990 0.000977 0.101006
v -0.151110 3.154843 0.085778
v -0.172990 0.000977 -0.101006
v -0.151110 3.154843 -0.085778
v -0.000675 2.974336 -0.196779
v 1.261489 4.733649 -0.117780
v 0.137793 2.874997 -0.098390
v 1.344368 4.674191 -0.058890
v 0.137793 2.874997 0.098390
v 1.344368 4.674191 0.058890
v -0.000675 2.974336 0.196780
v 1.261489 4.733649 0.117780
v -0.139142 3.073675 0.098390
v 1.178611 4.793108 0.058890
v -0.139142 3.073675 -0.098389
v 1.178611 4.793108 -0.058890
v 0.001029 2.991897 -0.139609
v -1.842365 4.226280 -0.118185
v 0.069502 3.094152 -0.068558
v -1.784215 4.313119 -0.057846
v 0.069502 3.094152 0.073544
v -1.784215 4.313119 0.062832
v 0.001029 2.991897 0.144595
v -1.842365 4.226280 0.123172
v -0.067444 2.889641 0.073544
v -1.900515 4.139441 0.062832
v -0.067444 2.889641 -0.068558
v -1.900515 4.139441 -0.057846
vn 0.5000 0.0091 -0.8660
vn 1.0000 0.0098 -0.0000
vn 0.5000 0.0091 0.8660
vn -0.5000 0.0076 0.8660
vn -0.5000 0.0076 -0.8660
vn -0.0014 1.0000 0.0000
vn -1.0000 0.0069 0.0000
vn 0.4245 -0.2657 -0.8656
vn 0.0014 -1.0000 -0.0000
vn 0.8305 -0.5570 -0.0000
vn 0.4245 -0.2657 0.8656
vn -0.3877 0.3170 0.8656
vn -0.3877 0.3170 -0.8656
vn 0.5829 0.8125 0.0000
vn -0.7937 0.6083 0.0000
vn 0.2712 0.4201 -0.8660
vn -0.5829 -0.8125 -0.0000
vn 0.5494 0.8355 0.0000
vn 0.2712 0.4201 0.8660
vn -0.2851 -0.4108 0.8660
vn -0.2851 -0.4108 -0.8660
vn -0.8309 0.5564 -0.0000
vn -0.5633 -0.8262 0.0000
vn 0.8309 -0.5564 -0.0000
vn 0.7223 -0.6901 0.0458
vn 0.8634 -0.0061 0.5044
vn -0.2284 -0.1866 -0.9555
vn -0.5525 0.6742 0.4902
vn -0.7350 0.6400 -0.2241
vn 0.4755 0.5921 -0.6506
vn -0.2634 0.7328 0.6274
vn 0.7025 0.7093 0.0576
vn 0.4777 0.5707 -0.6679
vn -0.8547 0.0247 -0.5185
vn 0.2914 -0.0679 0.9542
vn 0.5948 -0.6744 -0.4376
vn 0.0757 -0.7404 -0.6679
vn -0.7168 -0.6948 -0.0593
vn -0.5157 -0.6394 0.5704
vn -0.2041 -0.6732 0.7107
vn -0.0764 -0.9594 0.2714
vn 0.7666 -0.5801 0.2754
vn -0.3759 -0.9024 0.2105
vn 0.8617 -0.4262 0.2754
vn 0.0359 -0.2920 0.9557
vn -0.5874 -0.3238 -0.7417
vn 0.5449 -0.3620 -0.7564
vn -0.2846 -0.1585 0.9454
vn -0.1635 -0.0599 -0.9847
vn 0.8076 0.0104 -0.5896
vn 0.3799 0.6728 0.6349
vn -0.0010 0.6533 -0.7571
vn 0.3139 0.6694 -0.6734
vn -0.2584 0.7499 -0.6090
vn -0.3525 0.9336 -0.0636
vn -0.6558 0.6957 0.2933
vn -0.1112 0.6092 0.7852
vn 0.3801 0.9086 0.1731
vn 0.4189 0.8773 0.2343
vn 0.9031 0.4212 -0.0835
vn 0.8019 0.1959 -0.5645
vn -0.8521 0.4580 0.2533
vn 0.6497 0.2339 0.7233
vn 0.8532 0.0517 0.5191
vn -0.8657 0.1554 -0.4758
vn -0.7947 -0.1876 -0.5773
vn -0.9031 -0.4212 -0.0835
vn -0.8532 -0.0517 0.5191
vn -0.6193 -0.2545 0.7428
vn 0.3933 -0.7398 -0.5459
vn 0.3439 -0.7701 -0.5373
vn -0.3356 -0.7277 -0.5982
vn -0.4231 -0.8757 0.2325
vn 0.2819 -0.7952 0.5369
usemtl brown
s off
f 30//1 31//1 33//1 32//1
f 32//2 33//2 35//2 34//2
f 36//3 34//3 35//3 37//3
f 38//4 36//4 37//4 39//4
f 40//5 41//5 31//5 30//5
f 33//6 31//6 41//6 39//6 37//6 35//6
f 38//7 39//7 41//7 40//7
f 42//8 43//8 45//8 44//8
f 30//9 32//9 34//9 36//9 38//9 40//9
f 44//10 45//10 47//10 46//10
f 46//11 47//11 49//11 48//11
f 48//12 49//12 51//12 50//12
f 52//13 53//13 43//13 42//13
f 45//14 43//14 53//14 51//14 49//14 47//14
f 50//15 51//15 53//15 52//15
f 54//16 55//16 57//16 56//16
f 42//17 44//17 46//17 48//17 50//17 52//17
f 58//18 56//18 57//18 59//18
f 60//19 58//19 59//19 61//19
f 62//20 60//20 61//20 63//20
f 64//21 65//21 55//21 54//21
f 57//22 55//22 65//22 63//22 61//22 59//22
f 62//23 63//23 65//23 64//23
f 54//24 56//24 58//24 60//24 62//24 64//24
usemtl green
f 1//25 4//25 9//25
f 1//26 9//26 6//26
f 5//27 3//27 8//27
f 2//28 7//28 10//28
f 3//29 2//29 10//29
f 9//30 3//30 10//30
f 10//31 7//31 6//31
f 6//32 9//32 10//32
f 8//33 3//33 9//33
f 3//34 5//34 2//34
f 7//35 1//35 6//35
f 4//36 8//36 9//36
f 4//37 5//37 8//37
f 4//38 2//38 5//38
f 4//39 7//39 2//39
f 4//40 1//40 7//40
f 20//41 18//41 12//41
f 11//42 18//42 14//42
f 20//43 12//43 21//43
f 11//44 14//44 22//44
f 12//45 11//45 15//45
f 13//46 21//46 26//46
f 14//47 13//47 25//47
f 12//48 15//48 23//48
f 13//49 26//49 25//49
f 14//50 25//50 22//50
f 15//51 16//51 28//51
f 25//52 26//52 17//52
f 27//53 25//53 17//53
f 17//54 26//54 29//54
f 29//55 28//55 17//55
f 29//56 23//56 28//56
f 23//57 15//57 28//57
f 28//58 27//58 17//58
f 28//59 16//59 27//59
f 22//60 27//60 16//60
f 22//61 25//61 27//61
f 24//62 23//62 29//62
f 11//63 16//63 15//63
f 11//64 22//64 16//64
f 26//65 24//65 29//65
f 26//66 21//66 24//66
f 21//67 19//67 24//67
f 24//68 19//68 23//68
f 19//69 12//69 23//69
f 18//70 13//70 14//70
f 18//71 20//71 13//71
f 20//72 21//72 13//72
f 21//73 12//73 19//73
f 12//74 18//74 11//74
