# Blender v2.77 (sub 0) OBJ File: 'yinyang-flat.blend'
# www.blender.org
mtllib yinyang-flat.mtl
o yinyang_outer_Cylinder
v -3.826839 -0.000006 9.238795
v -4.691273 -0.000006 8.776745
v -1.950908 -0.000006 9.807853
v -2.888874 -0.000006 9.523324
v -0.975456 -0.000004 9.903927
v 0.000004 -0.000006 10.000000
v -0.487721 0.000000 -0.048036
v -0.975447 0.000000 -0.096073
v -1.444432 0.000000 -0.238338
v -1.913414 0.000000 -0.380602
v -2.345631 0.000000 -0.611627
v -2.777848 0.000000 -0.842651
v -3.156689 0.000000 -1.153558
v -3.535531 0.000000 -1.464466
v -3.846438 0.000000 -1.843307
v -4.157346 0.000000 -2.222149
v -4.388370 0.000000 -2.654366
v -4.619394 0.000000 -3.086583
v -4.761659 0.000000 -3.555565
v -4.903923 0.000000 -4.024548
v 4.619403 0.000000 3.086586
v 3.535542 0.000000 1.464468
v 3.846447 0.000000 1.843310
v 2.777858 0.000000 0.842653
v 3.156700 0.000000 1.153561
v 1.913423 0.000000 0.380603
v 2.345642 0.000000 0.611628
v 0.975458 0.000000 0.096074
v 1.444440 0.000000 0.238339
v 0.000003 0.000000 0.000000
v -0.975446 -0.000006 -9.903928
v 0.487731 0.000000 0.048037
v -0.487729 0.000000 -0.048038
v -0.000001 0.000000 -0.000001
v -1.444438 0.000000 -0.238340
v -0.975455 0.000000 -0.096075
v -2.345639 0.000000 -0.611629
v -1.913421 0.000000 -0.380604
v -3.156697 0.000000 -1.153561
v -2.777856 0.000000 -0.842654
v -3.846444 0.000000 -1.843311
v -3.535539 0.000000 -1.464469
v -4.619401 0.000000 -3.086586
v 4.903925 0.000000 4.024548
v 4.761661 0.000000 3.555565
v 4.619396 0.000000 3.086583
v 4.388371 0.000000 2.654366
v 4.157348 0.000000 2.222149
v 3.846440 0.000000 1.843307
v 3.535533 0.000000 1.464465
v 3.156692 0.000000 1.153558
v 2.777850 0.000000 0.842651
v 2.345634 0.000000 0.611626
v 1.913417 0.000000 0.380601
v 1.444434 0.000000 0.238337
v 0.975450 0.000000 0.096073
v 0.487723 0.000000 0.048036
v 0.975449 -0.000006 9.903928
v -0.000001 -0.000006 -10.000000
v 0.975459 -0.000004 -9.903927
v 2.888877 -0.000006 -9.523324
v 1.950912 -0.000006 -9.807853
v 4.691276 -0.000006 -8.776745
v 3.826842 -0.000006 -9.238795
v 6.313394 -0.000006 -7.692881
v 5.555711 -0.000006 -8.314694
v 7.692889 -0.000006 -6.313383
v 7.071076 -0.000006 -7.071066
v 8.776753 -0.000006 -4.691265
v 8.314704 -0.000006 -5.555699
v 9.523330 -0.000006 -2.888863
v 9.238803 -0.000006 -3.826829
v 9.903930 -0.000006 -0.975445
v 9.807857 -0.000006 -1.950897
v 9.903930 -0.000006 0.975459
v 10.000003 -0.000006 0.000007
v 9.523326 -0.000006 2.888877
v 9.807855 -0.000006 1.950911
v 8.776744 -0.000006 4.691276
v 9.238795 -0.000006 3.826843
v 7.692878 -0.000006 6.313391
v 8.314692 -0.000006 5.555711
v 6.313376 -0.000006 7.692888
v 7.071061 -0.000006 7.071073
v 4.691260 -0.000006 8.776752
v 5.555694 -0.000006 8.314704
v 2.888858 -0.000006 9.523328
v 3.826825 -0.000006 9.238801
v 0.975448 -0.000006 9.903927
v 1.950892 -0.000006 9.807855
v 4.951966 0.000000 4.512279
v 4.951966 0.000000 5.487730
v 5.000003 0.000000 5.000005
v 4.761664 0.000000 6.444439
v 4.903930 0.000000 5.975456
v 4.388373 0.000000 7.345639
v 4.619399 0.000000 6.913422
v 3.846440 0.000000 8.156697
v 4.157348 0.000000 7.777856
v 3.156692 0.000000 8.846445
v 3.535533 0.000000 8.535539
v 2.345630 0.000000 9.388377
v 2.777848 0.000000 9.157352
v 1.444430 0.000000 9.761665
v 1.913413 0.000000 9.619402
v -1.444430 0.000000 -9.761662
v -1.913413 0.000000 -9.619397
v -2.345632 0.000000 -9.388372
v -2.777848 0.000000 -9.157347
v -3.156690 0.000000 -8.846439
v -3.535531 0.000000 -8.535533
v -3.846438 0.000000 -8.156692
v -4.157350 0.000000 -7.777851
v -4.388372 0.000000 -7.345633
v -4.619399 0.000000 -6.913417
v -4.761662 0.000000 -6.444434
v -4.903928 0.000000 -5.975451
v -4.951964 0.000000 -5.487725
v -4.999999 0.000000 -5.000000
v -4.951962 0.000000 -4.512273
v -4.903925 0.000000 -4.024549
v -4.761661 0.000000 -3.555565
v -4.388371 0.000000 -2.654366
v -4.157348 0.000000 -2.222149
v -0.487721 -0.000002 -9.951963
v 0.487725 -0.000002 9.951963
v 4.157350 0.000000 2.222148
v 4.388373 0.000000 2.654365
v 4.761662 0.000000 3.555564
v 4.903927 0.000000 4.024547
v 4.951964 0.000000 4.512272
v 5.000001 0.000000 4.999998
v 4.951966 0.000000 5.487724
v 4.903930 0.000000 5.975450
v 4.761663 0.000000 6.444432
v 4.619401 0.000000 6.913415
v 4.388374 0.000000 7.345632
v 4.157351 0.000000 7.777849
v 3.846441 0.000000 8.156692
v 3.535534 0.000000 8.535533
v 3.156693 0.000000 8.846439
v 2.777851 0.000000 9.157347
v 2.345634 0.000000 9.388372
v 1.913416 0.000000 9.619397
v 1.444434 0.000000 9.761662
v -1.913412 0.000000 -9.619402
v -1.444429 0.000000 -9.761665
v -2.777846 0.000000 -9.157352
v -2.345628 0.000000 -9.388377
v -3.535531 0.000000 -8.535539
v -3.156690 0.000000 -8.846445
v -4.157346 0.000000 -7.777856
v -3.846438 0.000000 -8.156697
v -4.619397 0.000000 -6.913422
v -4.388371 0.000000 -7.345640
v -4.903928 0.000000 -5.975456
v -4.761662 0.000000 -6.444439
v -5.000001 0.000000 -5.000005
v -4.951964 0.000000 -5.487731
v -4.951964 0.000000 -4.512279
v -1.950891 -0.000006 -9.807855
v -0.975446 -0.000006 -9.903927
v -3.826823 -0.000006 -9.238801
v -2.888856 -0.000006 -9.523328
v -5.555693 -0.000006 -8.314702
v -4.691259 -0.000006 -8.776752
v -7.071059 -0.000006 -7.071074
v -6.313375 -0.000006 -7.692889
v -8.314691 -0.000006 -5.555711
v -7.692876 -0.000006 -6.313392
v -9.238793 -0.000006 -3.826843
v -8.776742 -0.000006 -4.691276
v -9.807853 -0.000006 -1.950910
v -9.523324 -0.000006 -2.888877
v -10.000001 -0.000006 -0.000006
v -9.903928 -0.000006 -0.975458
v -9.807855 -0.000006 1.950897
v -9.903928 -0.000006 0.975446
v -9.238801 -0.000006 3.826829
v -9.523328 -0.000006 2.888863
v -8.314702 -0.000006 5.555699
v -8.776752 -0.000006 4.691265
v -7.071074 -0.000006 7.071065
v -7.692887 -0.000006 6.313382
v -5.555708 -0.000006 8.314696
v -6.313392 -0.000006 7.692880
v 0.038167 0.038167 -6.000000
v -0.156924 0.038167 -5.980785
v -0.344517 0.038167 -5.923880
v -0.517404 0.038167 -5.831470
v -0.668940 0.038167 -5.707107
v -0.793303 0.038167 -5.555570
v -0.885713 0.038167 -5.382683
v -0.942619 0.038167 -5.195090
v -0.961833 0.038167 -5.000000
v -0.942619 0.038167 -4.804910
v -0.885713 0.038167 -4.617317
v -0.793303 0.038167 -4.444430
v -0.668940 0.038167 -4.292893
v -0.517403 0.038167 -4.168530
v -0.344517 0.038167 -4.076120
v -0.156923 0.038167 -4.019215
v 0.038167 0.038167 -4.000000
v 0.233257 0.038167 -4.019215
v 0.420851 0.038167 -4.076121
v 0.593737 0.038167 -4.168530
v 0.745274 0.038167 -4.292893
v 0.869637 0.038167 -4.444430
v 0.962047 0.038167 -4.617317
v 1.018952 0.038167 -4.804911
v 1.038167 0.038167 -5.000001
v 1.018952 0.038167 -5.195091
v 0.962046 0.038167 -5.382685
v 0.869636 0.038167 -5.555571
v 0.745273 0.038167 -5.707108
v 0.593736 0.038167 -5.831470
v 0.420849 0.038167 -5.923880
v 0.233255 0.038167 -5.980785
v 0.038167 0.038167 4.000000
v -0.156924 0.038167 4.019215
v -0.344517 0.038167 4.076120
v -0.517404 0.038167 4.168530
v -0.668940 0.038167 4.292893
v -0.793303 0.038167 4.444430
v -0.885713 0.038167 4.617317
v -0.942619 0.038167 4.804910
v -0.961833 0.038167 5.000000
v -0.942619 0.038167 5.195090
v -0.885713 0.038167 5.382683
v -0.793303 0.038167 5.555570
v -0.668940 0.038167 5.707107
v -0.517403 0.038167 5.831470
v -0.344517 0.038167 5.923880
v -0.156923 0.038167 5.980785
v 0.038167 0.038167 6.000000
v 0.233257 0.038167 5.980785
v 0.420851 0.038167 5.923879
v 0.593737 0.038167 5.831470
v 0.745274 0.038167 5.707107
v 0.869637 0.038167 5.555570
v 0.962047 0.038167 5.382683
v 1.018952 0.038167 5.195089
v 1.038167 0.038167 4.999999
v 1.018952 0.038167 4.804909
v 0.962046 0.038167 4.617315
v 0.869636 0.038167 4.444429
v 0.745273 0.038167 4.292892
v 0.593736 0.038167 4.168530
v 0.420849 0.038167 4.076120
v 0.233255 0.038167 4.019215
vt 0.3854 0.2647
vt 0.3803 0.2303
vt 0.3751 0.1958
vt 0.3751 0.1783
vt 0.3751 0.1607
vt 0.3777 0.1435
vt 0.3803 0.1263
vt 0.3853 0.1101
vt 0.3903 0.0939
vt 0.3976 0.0793
vt 0.4049 0.0647
vt 0.4143 0.0523
vt 0.4236 0.0399
vt 0.4345 0.0301
vt 0.4454 0.0204
vt 0.4576 0.0137
vt 0.4698 0.0070
vt 0.4827 0.0035
vt 0.4956 0.0001
vt 0.5087 0.0001
vt 0.5219 0.0001
vt 0.5348 0.0035
vt 0.5477 0.0070
vt 0.5599 0.0137
vt 0.5720 0.0204
vt 0.5830 0.0301
vt 0.5939 0.0399
vt 0.6032 0.0523
vt 0.6125 0.0647
vt 0.6199 0.0793
vt 0.6272 0.0939
vt 0.6322 0.1101
vt 0.6372 0.1263
vt 0.6398 0.1435
vt 0.6424 0.1607
vt 0.6449 0.1780
vt 0.6475 0.1952
vt 0.6526 0.2114
vt 0.6576 0.2276
vt 0.6649 0.2422
vt 0.6722 0.2568
vt 0.6815 0.2692
vt 0.6908 0.2816
vt 0.7018 0.2913
vt 0.7127 0.3011
vt 0.7249 0.3078
vt 0.7370 0.3145
vt 0.7499 0.3179
vt 0.7629 0.3214
vt 0.7760 0.3214
vt 0.7892 0.3214
vt 0.8021 0.3179
vt 0.8150 0.3145
vt 0.8272 0.3078
vt 0.8393 0.3011
vt 0.8503 0.2913
vt 0.8612 0.2816
vt 0.8705 0.2692
vt 0.8798 0.2568
vt 0.8871 0.2422
vt 0.8944 0.2276
vt 0.8995 0.2114
vt 0.9045 0.1952
vt 0.9071 0.1780
vt 0.9096 0.1607
vt 0.9096 0.1958
vt 0.9045 0.2303
vt 0.8994 0.2647
vt 0.8893 0.2971
vt 0.8792 0.3295
vt 0.8646 0.3587
vt 0.8500 0.3879
vt 0.8314 0.4127
vt 0.8128 0.4375
vt 0.7909 0.4570
vt 0.7690 0.4765
vt 0.7447 0.4900
vt 0.7203 0.5034
vt 0.6945 0.5102
vt 0.6687 0.5171
vt 0.6424 0.5171
vt 0.6161 0.5171
vt 0.5902 0.5102
vt 0.5644 0.5034
vt 0.5401 0.4900
vt 0.5158 0.4765
vt 0.4939 0.4570
vt 0.4720 0.4375
vt 0.4534 0.4127
vt 0.4348 0.3879
vt 0.4202 0.3587
vt 0.4055 0.3295
vt 0.3955 0.2971
vt 0.5042 0.7049
vt 0.5143 0.7373
vt 0.5244 0.7697
vt 0.5269 0.7870
vt 0.5295 0.8042
vt 0.5295 0.8217
vt 0.5295 0.8393
vt 0.5269 0.8565
vt 0.5244 0.8737
vt 0.5193 0.8899
vt 0.5143 0.9061
vt 0.5070 0.9207
vt 0.4997 0.9353
vt 0.4904 0.9477
vt 0.4811 0.9601
vt 0.4701 0.9699
vt 0.4592 0.9796
vt 0.4470 0.9863
vt 0.4349 0.9930
vt 0.4219 0.9965
vt 0.4090 0.9999
vt 0.3959 0.9999
vt 0.3827 0.9999
vt 0.3698 0.9965
vt 0.3569 0.9930
vt 0.3447 0.9863
vt 0.3326 0.9796
vt 0.3216 0.9699
vt 0.3107 0.9601
vt 0.3014 0.9477
vt 0.2921 0.9353
vt 0.2848 0.9207
vt 0.2775 0.9061
vt 0.2724 0.8899
vt 0.2674 0.8737
vt 0.2623 0.8575
vt 0.2573 0.8413
vt 0.2500 0.8267
vt 0.2427 0.8121
vt 0.2334 0.7997
vt 0.2241 0.7873
vt 0.2131 0.7775
vt 0.2022 0.7678
vt 0.1900 0.7610
vt 0.1779 0.7543
vt 0.1650 0.7509
vt 0.1520 0.7475
vt 0.1389 0.7475
vt 0.1257 0.7475
vt 0.1128 0.7509
vt 0.0999 0.7543
vt 0.0877 0.7610
vt 0.0756 0.7677
vt 0.0646 0.7775
vt 0.0537 0.7872
vt 0.0444 0.7997
vt 0.0351 0.8121
vt 0.0278 0.8267
vt 0.0205 0.8412
vt 0.0154 0.8575
vt 0.0104 0.8737
vt 0.0078 0.8909
vt 0.0053 0.9081
vt 0.0053 0.9256
vt 0.0053 0.9432
vt 0.0001 0.9088
vt 0.0001 0.8737
vt 0.0001 0.8386
vt 0.0053 0.8042
vt 0.0104 0.7697
vt 0.0205 0.7373
vt 0.0305 0.7049
vt 0.0452 0.6757
vt 0.0598 0.6465
vt 0.0784 0.6217
vt 0.0970 0.5969
vt 0.1189 0.5774
vt 0.1408 0.5579
vt 0.1651 0.5445
vt 0.1894 0.5310
vt 0.2152 0.5242
vt 0.2411 0.5173
vt 0.2674 0.5173
vt 0.2937 0.5173
vt 0.3195 0.5242
vt 0.3453 0.5310
vt 0.3697 0.5445
vt 0.3940 0.5579
vt 0.4159 0.5774
vt 0.4378 0.5969
vt 0.4564 0.6217
vt 0.4750 0.6465
vt 0.4896 0.6757
vt 0.5538 0.1415
vt 0.5489 0.1388
vt 0.5446 0.1349
vt 0.5408 0.1300
vt 0.5379 0.1241
vt 0.5359 0.1176
vt 0.5349 0.1108
vt 0.5349 0.1037
vt 0.5359 0.0969
vt 0.5379 0.0904
vt 0.5408 0.0845
vt 0.5446 0.0796
vt 0.5489 0.0757
vt 0.5538 0.0730
vt 0.5590 0.0716
vt 0.5642 0.0716
vt 0.5694 0.0730
vt 0.5743 0.0757
vt 0.5786 0.0796
vt 0.5824 0.0845
vt 0.5853 0.0904
vt 0.5873 0.0969
vt 0.5883 0.1037
vt 0.5883 0.1108
vt 0.5873 0.1176
vt 0.5853 0.1241
vt 0.5824 0.1300
vt 0.5786 0.1349
vt 0.5743 0.1388
vt 0.5694 0.1415
vt 0.5642 0.1429
vt 0.5590 0.1429
vt 0.3090 0.5714
vt 0.3038 0.5700
vt 0.2989 0.5673
vt 0.2946 0.5634
vt 0.2908 0.5585
vt 0.2879 0.5526
vt 0.2859 0.5461
vt 0.2849 0.5393
vt 0.2849 0.5322
vt 0.2859 0.5254
vt 0.2879 0.5189
vt 0.2908 0.5130
vt 0.2946 0.5081
vt 0.2989 0.5042
vt 0.3038 0.5015
vt 0.3090 0.5001
vt 0.3142 0.5001
vt 0.3194 0.5015
vt 0.3243 0.5042
vt 0.3286 0.5081
vt 0.3324 0.5130
vt 0.3353 0.5189
vt 0.3373 0.5254
vt 0.3383 0.5322
vt 0.3383 0.5393
vt 0.3373 0.5461
vt 0.3353 0.5526
vt 0.3324 0.5585
vt 0.3286 0.5634
vt 0.3243 0.5673
vt 0.3194 0.5700
vt 0.3142 0.5714
vn -0.0000 1.0000 0.0000
usemtl None
s off
f 3/1/1 5/2/1 6/3/1 126/4/1 58/5/1 145/6/1 144/7/1 143/8/1 142/9/1 141/10/1 140/11/1 139/12/1 138/13/1 137/14/1 136/15/1 135/16/1 134/17/1 133/18/1 132/19/1 131/20/1 130/21/1 129/22/1 21/23/1 128/24/1 127/25/1 23/26/1 22/27/1 25/28/1 24/29/1 27/30/1 26/31/1 29/32/1 28/33/1 32/34/1 30/35/1 7/36/1 8/37/1 9/38/1 10/39/1 11/40/1 12/41/1 13/42/1 14/43/1 15/44/1 16/45/1 17/46/1 18/47/1 19/48/1 20/49/1 160/50/1 158/51/1 159/52/1 156/53/1 157/54/1 154/55/1 155/56/1 152/57/1 153/58/1 150/59/1 151/60/1 148/61/1 149/62/1 146/63/1 147/64/1 162/65/1 161/66/1 164/67/1 163/68/1 166/69/1 165/70/1 168/71/1 167/72/1 170/73/1 169/74/1 172/75/1 171/76/1 174/77/1 173/78/1 176/79/1 175/80/1 178/81/1 177/82/1 180/83/1 179/84/1 182/85/1 181/86/1 184/87/1 183/88/1 186/89/1 185/90/1 2/91/1 1/92/1 4/93/1
f 62/94/1 60/95/1 59/96/1 125/97/1 31/98/1 106/99/1 107/100/1 108/101/1 109/102/1 110/103/1 111/104/1 112/105/1 113/106/1 114/107/1 115/108/1 116/109/1 117/110/1 118/111/1 119/112/1 120/113/1 121/114/1 122/115/1 43/116/1 123/117/1 124/118/1 41/119/1 42/120/1 39/121/1 40/122/1 37/123/1 38/124/1 35/125/1 36/126/1 33/127/1 34/128/1 57/129/1 56/130/1 55/131/1 54/132/1 53/133/1 52/134/1 51/135/1 50/136/1 49/137/1 48/138/1 47/139/1 46/140/1 45/141/1 44/142/1 91/143/1 93/144/1 92/145/1 95/146/1 94/147/1 97/148/1 96/149/1 99/150/1 98/151/1 101/152/1 100/153/1 103/154/1 102/155/1 105/156/1 104/157/1 89/158/1 90/159/1 87/160/1 88/161/1 85/162/1 86/163/1 83/164/1 84/165/1 81/166/1 82/167/1 79/168/1 80/169/1 77/170/1 78/171/1 75/172/1 76/173/1 73/174/1 74/175/1 71/176/1 72/177/1 69/178/1 70/179/1 67/180/1 68/181/1 65/182/1 66/183/1 63/184/1 64/185/1 61/186/1
f 188/187/1 189/188/1 190/189/1 191/190/1 192/191/1 193/192/1 194/193/1 195/194/1 196/195/1 197/196/1 198/197/1 199/198/1 200/199/1 201/200/1 202/201/1 203/202/1 204/203/1 205/204/1 206/205/1 207/206/1 208/207/1 209/208/1 210/209/1 211/210/1 212/211/1 213/212/1 214/213/1 215/214/1 216/215/1 217/216/1 218/217/1 187/218/1
f 220/219/1 221/220/1 222/221/1 223/222/1 224/223/1 225/224/1 226/225/1 227/226/1 228/227/1 229/228/1 230/229/1 231/230/1 232/231/1 233/232/1 234/233/1 235/234/1 236/235/1 237/236/1 238/237/1 239/238/1 240/239/1 241/240/1 242/241/1 243/242/1 244/243/1 245/244/1 246/245/1 247/246/1 248/247/1 249/248/1 250/249/1 219/250/1
